<svg xmlns="http://www.w3.org/2000/svg" width="1120" height="640" viewBox="0 0 1120 640">
<rect width="1120" height="640" fill="white"/>
<text x="82" y="34" font-size="22" font-family="sans-serif" font-weight="700">mean_test_nmae_iqr by checkpoint</text>
<line x1="82" y1="562" x2="860" y2="562" stroke="#222"/>
<line x1="82" y1="64" x2="82" y2="562" stroke="#222"/>
<line x1="82.0" y1="64" x2="82.0" y2="562" stroke="#eeeeee"/>
<line x1="82" y1="562.0" x2="860" y2="562.0" stroke="#eeeeee"/>
<text x="82.0" y="588" text-anchor="middle" font-size="12" font-family="sans-serif">500</text>
<text x="70" y="566.0" text-anchor="end" font-size="12" font-family="sans-serif">0.260</text>
<line x1="237.6" y1="64" x2="237.6" y2="562" stroke="#eeeeee"/>
<line x1="82" y1="462.4" x2="860" y2="462.4" stroke="#eeeeee"/>
<text x="237.6" y="588" text-anchor="middle" font-size="12" font-family="sans-serif">1300</text>
<text x="70" y="466.4" text-anchor="end" font-size="12" font-family="sans-serif">0.299</text>
<line x1="393.2" y1="64" x2="393.2" y2="562" stroke="#eeeeee"/>
<line x1="82" y1="362.8" x2="860" y2="362.8" stroke="#eeeeee"/>
<text x="393.2" y="588" text-anchor="middle" font-size="12" font-family="sans-serif">2100</text>
<text x="70" y="366.8" text-anchor="end" font-size="12" font-family="sans-serif">0.338</text>
<line x1="548.8" y1="64" x2="548.8" y2="562" stroke="#eeeeee"/>
<line x1="82" y1="263.2" x2="860" y2="263.2" stroke="#eeeeee"/>
<text x="548.8" y="588" text-anchor="middle" font-size="12" font-family="sans-serif">2900</text>
<text x="70" y="267.2" text-anchor="end" font-size="12" font-family="sans-serif">0.377</text>
<line x1="704.4" y1="64" x2="704.4" y2="562" stroke="#eeeeee"/>
<line x1="82" y1="163.6" x2="860" y2="163.6" stroke="#eeeeee"/>
<text x="704.4" y="588" text-anchor="middle" font-size="12" font-family="sans-serif">3700</text>
<text x="70" y="167.6" text-anchor="end" font-size="12" font-family="sans-serif">0.415</text>
<line x1="860.0" y1="64" x2="860.0" y2="562" stroke="#eeeeee"/>
<line x1="82" y1="64.0" x2="860" y2="64.0" stroke="#eeeeee"/>
<text x="860.0" y="588" text-anchor="middle" font-size="12" font-family="sans-serif">4500</text>
<text x="70" y="68.0" text-anchor="end" font-size="12" font-family="sans-serif">0.454</text>
<text x="471.0" y="616" text-anchor="middle" font-size="14" font-family="sans-serif">checkpoint step</text>
<text x="22" y="313.0" transform="rotate(-90 22 313.0)" text-anchor="middle" font-size="14" font-family="sans-serif">mean_test_nmae_iqr</text>
<polyline points="82.0,527.7 179.2,527.7 276.5,527.7 373.8,527.7 471.0,527.7 568.2,527.7 665.5,527.7 762.8,527.7 860.0,527.7" fill="none" stroke="#1f77b4" stroke-width="2.4" stroke-linejoin="round" stroke-linecap="round"/>
<circle cx="82.0" cy="527.7" r="3.2" fill="#1f77b4"/>
<circle cx="179.2" cy="527.7" r="3.2" fill="#1f77b4"/>
<circle cx="276.5" cy="527.7" r="3.2" fill="#1f77b4"/>
<circle cx="373.8" cy="527.7" r="3.2" fill="#1f77b4"/>
<circle cx="471.0" cy="527.7" r="3.2" fill="#1f77b4"/>
<circle cx="568.2" cy="527.7" r="3.2" fill="#1f77b4"/>
<circle cx="665.5" cy="527.7" r="3.2" fill="#1f77b4"/>
<circle cx="762.8" cy="527.7" r="3.2" fill="#1f77b4"/>
<circle cx="860.0" cy="527.7" r="3.2" fill="#1f77b4"/>
<line x1="888" y1="64" x2="914" y2="64" stroke="#1f77b4" stroke-width="3"/>
<text x="922" y="68" font-size="13" font-family="sans-serif">pretrained_tabicl_v2</text>
<polyline points="82.0,112.5 179.2,297.6 276.5,298.5 373.8,373.7 471.0,377.9 568.2,381.6 665.5,365.2 762.8,427.8 860.0,367.8" fill="none" stroke="#d62728" stroke-width="2.4" stroke-linejoin="round" stroke-linecap="round"/>
<circle cx="82.0" cy="112.5" r="3.2" fill="#d62728"/>
<circle cx="179.2" cy="297.6" r="3.2" fill="#d62728"/>
<circle cx="276.5" cy="298.5" r="3.2" fill="#d62728"/>
<circle cx="373.8" cy="373.7" r="3.2" fill="#d62728"/>
<circle cx="471.0" cy="377.9" r="3.2" fill="#d62728"/>
<circle cx="568.2" cy="381.6" r="3.2" fill="#d62728"/>
<circle cx="665.5" cy="365.2" r="3.2" fill="#d62728"/>
<circle cx="762.8" cy="427.8" r="3.2" fill="#d62728"/>
<circle cx="860.0" cy="367.8" r="3.2" fill="#d62728"/>
<line x1="888" y1="88" x2="914" y2="88" stroke="#d62728" stroke-width="3"/>
<text x="922" y="92" font-size="13" font-family="sans-serif">regression_test6</text>
<polyline points="82.0,135.3 179.2,288.9 276.5,352.3 373.8,389.1 471.0,395.3 568.2,389.7 665.5,417.4 762.8,433.5 860.0,400.4" fill="none" stroke="#2ca02c" stroke-width="2.4" stroke-linejoin="round" stroke-linecap="round"/>
<circle cx="82.0" cy="135.3" r="3.2" fill="#2ca02c"/>
<circle cx="179.2" cy="288.9" r="3.2" fill="#2ca02c"/>
<circle cx="276.5" cy="352.3" r="3.2" fill="#2ca02c"/>
<circle cx="373.8" cy="389.1" r="3.2" fill="#2ca02c"/>
<circle cx="471.0" cy="395.3" r="3.2" fill="#2ca02c"/>
<circle cx="568.2" cy="389.7" r="3.2" fill="#2ca02c"/>
<circle cx="665.5" cy="417.4" r="3.2" fill="#2ca02c"/>
<circle cx="762.8" cy="433.5" r="3.2" fill="#2ca02c"/>
<circle cx="860.0" cy="400.4" r="3.2" fill="#2ca02c"/>
<line x1="888" y1="112" x2="914" y2="112" stroke="#2ca02c" stroke-width="3"/>
<text x="922" y="116" font-size="13" font-family="sans-serif">regression_test5</text>
<polyline points="82.0,98.3 179.2,267.7 276.5,361.5 373.8,336.8 471.0,350.1 568.2,340.7 665.5,187.4 762.8,386.7 860.0,370.7" fill="none" stroke="#9467bd" stroke-width="2.4" stroke-linejoin="round" stroke-linecap="round"/>
<circle cx="82.0" cy="98.3" r="3.2" fill="#9467bd"/>
<circle cx="179.2" cy="267.7" r="3.2" fill="#9467bd"/>
<circle cx="276.5" cy="361.5" r="3.2" fill="#9467bd"/>
<circle cx="373.8" cy="336.8" r="3.2" fill="#9467bd"/>
<circle cx="471.0" cy="350.1" r="3.2" fill="#9467bd"/>
<circle cx="568.2" cy="340.7" r="3.2" fill="#9467bd"/>
<circle cx="665.5" cy="187.4" r="3.2" fill="#9467bd"/>
<circle cx="762.8" cy="386.7" r="3.2" fill="#9467bd"/>
<circle cx="860.0" cy="370.7" r="3.2" fill="#9467bd"/>
<line x1="888" y1="136" x2="914" y2="136" stroke="#9467bd" stroke-width="3"/>
<text x="922" y="140" font-size="13" font-family="sans-serif">regression_baseline</text>
</svg>
