<svg xmlns="http://www.w3.org/2000/svg" width="1120" height="640" viewBox="0 0 1120 640">
<rect width="1120" height="640" fill="white"/>
<text x="82" y="34" font-size="22" font-family="sans-serif" font-weight="700">mean_test_nmae_iqr by checkpoint</text>
<line x1="82" y1="562" x2="860" y2="562" stroke="#222"/>
<line x1="82" y1="64" x2="82" y2="562" stroke="#222"/>
<line x1="82.0" y1="64" x2="82.0" y2="562" stroke="#eeeeee"/>
<line x1="82" y1="562.0" x2="860" y2="562.0" stroke="#eeeeee"/>
<text x="82.0" y="588" text-anchor="middle" font-size="12" font-family="sans-serif">100</text>
<text x="70" y="566.0" text-anchor="end" font-size="12" font-family="sans-serif">0.658</text>
<line x1="237.6" y1="64" x2="237.6" y2="562" stroke="#eeeeee"/>
<line x1="82" y1="462.4" x2="860" y2="462.4" stroke="#eeeeee"/>
<text x="237.6" y="588" text-anchor="middle" font-size="12" font-family="sans-serif">380</text>
<text x="70" y="466.4" text-anchor="end" font-size="12" font-family="sans-serif">0.683</text>
<line x1="393.2" y1="64" x2="393.2" y2="562" stroke="#eeeeee"/>
<line x1="82" y1="362.8" x2="860" y2="362.8" stroke="#eeeeee"/>
<text x="393.2" y="588" text-anchor="middle" font-size="12" font-family="sans-serif">660</text>
<text x="70" y="366.8" text-anchor="end" font-size="12" font-family="sans-serif">0.708</text>
<line x1="548.8" y1="64" x2="548.8" y2="562" stroke="#eeeeee"/>
<line x1="82" y1="263.2" x2="860" y2="263.2" stroke="#eeeeee"/>
<text x="548.8" y="588" text-anchor="middle" font-size="12" font-family="sans-serif">940</text>
<text x="70" y="267.2" text-anchor="end" font-size="12" font-family="sans-serif">0.733</text>
<line x1="704.4" y1="64" x2="704.4" y2="562" stroke="#eeeeee"/>
<line x1="82" y1="163.6" x2="860" y2="163.6" stroke="#eeeeee"/>
<text x="704.4" y="588" text-anchor="middle" font-size="12" font-family="sans-serif">1220</text>
<text x="70" y="167.6" text-anchor="end" font-size="12" font-family="sans-serif">0.758</text>
<line x1="860.0" y1="64" x2="860.0" y2="562" stroke="#eeeeee"/>
<line x1="82" y1="64.0" x2="860" y2="64.0" stroke="#eeeeee"/>
<text x="860.0" y="588" text-anchor="middle" font-size="12" font-family="sans-serif">1500</text>
<text x="70" y="68.0" text-anchor="end" font-size="12" font-family="sans-serif">0.783</text>
<text x="471.0" y="616" text-anchor="middle" font-size="14" font-family="sans-serif">checkpoint step</text>
<text x="22" y="313.0" transform="rotate(-90 22 313.0)" text-anchor="middle" font-size="14" font-family="sans-serif">mean_test_nmae_iqr</text>
<polyline points="82.0,444.1 137.6,444.1 193.1,444.1 248.7,444.1 304.3,444.1 359.9,444.1 415.4,444.1 471.0,444.1 526.6,444.1 582.1,444.1 637.7,444.1 693.3,444.1 748.9,444.1 804.4,444.1 860.0,444.1" fill="none" stroke="#1f77b4" stroke-width="2.4" stroke-linejoin="round" stroke-linecap="round"/>
<circle cx="82.0" cy="444.1" r="3.2" fill="#1f77b4"/>
<circle cx="137.6" cy="444.1" r="3.2" fill="#1f77b4"/>
<circle cx="193.1" cy="444.1" r="3.2" fill="#1f77b4"/>
<circle cx="248.7" cy="444.1" r="3.2" fill="#1f77b4"/>
<circle cx="304.3" cy="444.1" r="3.2" fill="#1f77b4"/>
<circle cx="359.9" cy="444.1" r="3.2" fill="#1f77b4"/>
<circle cx="415.4" cy="444.1" r="3.2" fill="#1f77b4"/>
<circle cx="471.0" cy="444.1" r="3.2" fill="#1f77b4"/>
<circle cx="526.6" cy="444.1" r="3.2" fill="#1f77b4"/>
<circle cx="582.1" cy="444.1" r="3.2" fill="#1f77b4"/>
<circle cx="637.7" cy="444.1" r="3.2" fill="#1f77b4"/>
<circle cx="693.3" cy="444.1" r="3.2" fill="#1f77b4"/>
<circle cx="748.9" cy="444.1" r="3.2" fill="#1f77b4"/>
<circle cx="804.4" cy="444.1" r="3.2" fill="#1f77b4"/>
<circle cx="860.0" cy="444.1" r="3.2" fill="#1f77b4"/>
<line x1="888" y1="64" x2="914" y2="64" stroke="#1f77b4" stroke-width="3"/>
<text x="922" y="68" font-size="13" font-family="sans-serif">pretrained_tabicl_v2</text>
<polyline points="82.0,176.8 137.6,422.6 193.1,395.0 248.7,487.0 304.3,513.8 359.9,522.0 415.4,509.5 471.0,486.6 526.6,496.9 582.1,468.1 637.7,459.7 693.3,468.7 748.9,452.2 804.4,457.2 860.0,448.5" fill="none" stroke="#d62728" stroke-width="2.4" stroke-linejoin="round" stroke-linecap="round"/>
<circle cx="82.0" cy="176.8" r="3.2" fill="#d62728"/>
<circle cx="137.6" cy="422.6" r="3.2" fill="#d62728"/>
<circle cx="193.1" cy="395.0" r="3.2" fill="#d62728"/>
<circle cx="248.7" cy="487.0" r="3.2" fill="#d62728"/>
<circle cx="304.3" cy="513.8" r="3.2" fill="#d62728"/>
<circle cx="359.9" cy="522.0" r="3.2" fill="#d62728"/>
<circle cx="415.4" cy="509.5" r="3.2" fill="#d62728"/>
<circle cx="471.0" cy="486.6" r="3.2" fill="#d62728"/>
<circle cx="526.6" cy="496.9" r="3.2" fill="#d62728"/>
<circle cx="582.1" cy="468.1" r="3.2" fill="#d62728"/>
<circle cx="637.7" cy="459.7" r="3.2" fill="#d62728"/>
<circle cx="693.3" cy="468.7" r="3.2" fill="#d62728"/>
<circle cx="748.9" cy="452.2" r="3.2" fill="#d62728"/>
<circle cx="804.4" cy="457.2" r="3.2" fill="#d62728"/>
<circle cx="860.0" cy="448.5" r="3.2" fill="#d62728"/>
<line x1="888" y1="88" x2="914" y2="88" stroke="#d62728" stroke-width="3"/>
<text x="922" y="92" font-size="13" font-family="sans-serif">datacor_inhibitor_v6_best_trial22</text>
<polyline points="82.0,173.8 137.6,104.0 193.1,413.1 248.7,449.0 304.3,417.0 359.9,483.2 415.4,445.8 471.0,433.6 526.6,448.2 582.1,425.9 637.7,408.1 693.3,384.8 748.9,402.2 804.4,438.9 860.0,407.0" fill="none" stroke="#2ca02c" stroke-width="2.4" stroke-linejoin="round" stroke-linecap="round"/>
<circle cx="82.0" cy="173.8" r="3.2" fill="#2ca02c"/>
<circle cx="137.6" cy="104.0" r="3.2" fill="#2ca02c"/>
<circle cx="193.1" cy="413.1" r="3.2" fill="#2ca02c"/>
<circle cx="248.7" cy="449.0" r="3.2" fill="#2ca02c"/>
<circle cx="304.3" cy="417.0" r="3.2" fill="#2ca02c"/>
<circle cx="359.9" cy="483.2" r="3.2" fill="#2ca02c"/>
<circle cx="415.4" cy="445.8" r="3.2" fill="#2ca02c"/>
<circle cx="471.0" cy="433.6" r="3.2" fill="#2ca02c"/>
<circle cx="526.6" cy="448.2" r="3.2" fill="#2ca02c"/>
<circle cx="582.1" cy="425.9" r="3.2" fill="#2ca02c"/>
<circle cx="637.7" cy="408.1" r="3.2" fill="#2ca02c"/>
<circle cx="693.3" cy="384.8" r="3.2" fill="#2ca02c"/>
<circle cx="748.9" cy="402.2" r="3.2" fill="#2ca02c"/>
<circle cx="804.4" cy="438.9" r="3.2" fill="#2ca02c"/>
<circle cx="860.0" cy="407.0" r="3.2" fill="#2ca02c"/>
<line x1="888" y1="112" x2="914" y2="112" stroke="#2ca02c" stroke-width="3"/>
<text x="922" y="116" font-size="13" font-family="sans-serif">datacor_inhibitor_horizon_test1</text>
<polyline points="82.0,145.2 137.6,223.3 193.1,355.0 248.7,421.6 304.3,477.9 359.9,476.1 415.4,465.9 471.0,443.4 526.6,458.1 582.1,431.5 637.7,425.4 693.3,415.8 748.9,434.3 804.4,477.1 860.0,485.5" fill="none" stroke="#9467bd" stroke-width="2.4" stroke-linejoin="round" stroke-linecap="round"/>
<circle cx="82.0" cy="145.2" r="3.2" fill="#9467bd"/>
<circle cx="137.6" cy="223.3" r="3.2" fill="#9467bd"/>
<circle cx="193.1" cy="355.0" r="3.2" fill="#9467bd"/>
<circle cx="248.7" cy="421.6" r="3.2" fill="#9467bd"/>
<circle cx="304.3" cy="477.9" r="3.2" fill="#9467bd"/>
<circle cx="359.9" cy="476.1" r="3.2" fill="#9467bd"/>
<circle cx="415.4" cy="465.9" r="3.2" fill="#9467bd"/>
<circle cx="471.0" cy="443.4" r="3.2" fill="#9467bd"/>
<circle cx="526.6" cy="458.1" r="3.2" fill="#9467bd"/>
<circle cx="582.1" cy="431.5" r="3.2" fill="#9467bd"/>
<circle cx="637.7" cy="425.4" r="3.2" fill="#9467bd"/>
<circle cx="693.3" cy="415.8" r="3.2" fill="#9467bd"/>
<circle cx="748.9" cy="434.3" r="3.2" fill="#9467bd"/>
<circle cx="804.4" cy="477.1" r="3.2" fill="#9467bd"/>
<circle cx="860.0" cy="485.5" r="3.2" fill="#9467bd"/>
<line x1="888" y1="136" x2="914" y2="136" stroke="#9467bd" stroke-width="3"/>
<text x="922" y="140" font-size="13" font-family="sans-serif">datacor_inhibitor_horizon_test2</text>
</svg>
