<svg xmlns="http://www.w3.org/2000/svg" width="1120" height="640" viewBox="0 0 1120 640">
<rect width="1120" height="640" fill="white"/>
<text x="82" y="34" font-size="22" font-family="sans-serif" font-weight="700">mean_test_r2 by checkpoint</text>
<line x1="82" y1="562" x2="860" y2="562" stroke="#222"/>
<line x1="82" y1="64" x2="82" y2="562" stroke="#222"/>
<line x1="82.0" y1="64" x2="82.0" y2="562" stroke="#eeeeee"/>
<line x1="82" y1="562.0" x2="860" y2="562.0" stroke="#eeeeee"/>
<text x="82.0" y="588" text-anchor="middle" font-size="12" font-family="sans-serif">500</text>
<text x="70" y="566.0" text-anchor="end" font-size="12" font-family="sans-serif">0.215</text>
<line x1="237.6" y1="64" x2="237.6" y2="562" stroke="#eeeeee"/>
<line x1="82" y1="462.4" x2="860" y2="462.4" stroke="#eeeeee"/>
<text x="237.6" y="588" text-anchor="middle" font-size="12" font-family="sans-serif">2400</text>
<text x="70" y="466.4" text-anchor="end" font-size="12" font-family="sans-serif">0.323</text>
<line x1="393.2" y1="64" x2="393.2" y2="562" stroke="#eeeeee"/>
<line x1="82" y1="362.8" x2="860" y2="362.8" stroke="#eeeeee"/>
<text x="393.2" y="588" text-anchor="middle" font-size="12" font-family="sans-serif">4300</text>
<text x="70" y="366.8" text-anchor="end" font-size="12" font-family="sans-serif">0.431</text>
<line x1="548.8" y1="64" x2="548.8" y2="562" stroke="#eeeeee"/>
<line x1="82" y1="263.2" x2="860" y2="263.2" stroke="#eeeeee"/>
<text x="548.8" y="588" text-anchor="middle" font-size="12" font-family="sans-serif">6200</text>
<text x="70" y="267.2" text-anchor="end" font-size="12" font-family="sans-serif">0.539</text>
<line x1="704.4" y1="64" x2="704.4" y2="562" stroke="#eeeeee"/>
<line x1="82" y1="163.6" x2="860" y2="163.6" stroke="#eeeeee"/>
<text x="704.4" y="588" text-anchor="middle" font-size="12" font-family="sans-serif">8100</text>
<text x="70" y="167.6" text-anchor="end" font-size="12" font-family="sans-serif">0.646</text>
<line x1="860.0" y1="64" x2="860.0" y2="562" stroke="#eeeeee"/>
<line x1="82" y1="64.0" x2="860" y2="64.0" stroke="#eeeeee"/>
<text x="860.0" y="588" text-anchor="middle" font-size="12" font-family="sans-serif">10000</text>
<text x="70" y="68.0" text-anchor="end" font-size="12" font-family="sans-serif">0.754</text>
<text x="471.0" y="616" text-anchor="middle" font-size="14" font-family="sans-serif">checkpoint step</text>
<text x="22" y="313.0" transform="rotate(-90 22 313.0)" text-anchor="middle" font-size="14" font-family="sans-serif">mean_test_r2</text>
<polyline points="82.0,98.3 122.9,98.3 163.9,98.3 204.8,98.3 245.8,98.3 286.7,98.3 327.7,98.3 368.6,98.3 409.6,98.3 450.5,98.3 491.5,98.3 532.4,98.3 573.4,98.3 614.3,98.3 655.3,98.3 696.2,98.3 737.2,98.3 778.1,98.3 819.1,98.3 860.0,98.3" fill="none" stroke="#1f77b4" stroke-width="2.4" stroke-linejoin="round" stroke-linecap="round"/>
<circle cx="82.0" cy="98.3" r="3.2" fill="#1f77b4"/>
<circle cx="122.9" cy="98.3" r="3.2" fill="#1f77b4"/>
<circle cx="163.9" cy="98.3" r="3.2" fill="#1f77b4"/>
<circle cx="204.8" cy="98.3" r="3.2" fill="#1f77b4"/>
<circle cx="245.8" cy="98.3" r="3.2" fill="#1f77b4"/>
<circle cx="286.7" cy="98.3" r="3.2" fill="#1f77b4"/>
<circle cx="327.7" cy="98.3" r="3.2" fill="#1f77b4"/>
<circle cx="368.6" cy="98.3" r="3.2" fill="#1f77b4"/>
<circle cx="409.6" cy="98.3" r="3.2" fill="#1f77b4"/>
<circle cx="450.5" cy="98.3" r="3.2" fill="#1f77b4"/>
<circle cx="491.5" cy="98.3" r="3.2" fill="#1f77b4"/>
<circle cx="532.4" cy="98.3" r="3.2" fill="#1f77b4"/>
<circle cx="573.4" cy="98.3" r="3.2" fill="#1f77b4"/>
<circle cx="614.3" cy="98.3" r="3.2" fill="#1f77b4"/>
<circle cx="655.3" cy="98.3" r="3.2" fill="#1f77b4"/>
<circle cx="696.2" cy="98.3" r="3.2" fill="#1f77b4"/>
<circle cx="737.2" cy="98.3" r="3.2" fill="#1f77b4"/>
<circle cx="778.1" cy="98.3" r="3.2" fill="#1f77b4"/>
<circle cx="819.1" cy="98.3" r="3.2" fill="#1f77b4"/>
<circle cx="860.0" cy="98.3" r="3.2" fill="#1f77b4"/>
<line x1="888" y1="64" x2="914" y2="64" stroke="#1f77b4" stroke-width="3"/>
<text x="922" y="68" font-size="13" font-family="sans-serif">catboost</text>
<polyline points="82.0,120.9 122.9,120.9 163.9,120.9 204.8,120.9 245.8,120.9 286.7,120.9 327.7,120.9 368.6,120.9 409.6,120.9 450.5,120.9 491.5,120.9 532.4,120.9 573.4,120.9 614.3,120.9 655.3,120.9 696.2,120.9 737.2,120.9 778.1,120.9 819.1,120.9 860.0,120.9" fill="none" stroke="#d62728" stroke-width="2.4" stroke-linejoin="round" stroke-linecap="round"/>
<circle cx="82.0" cy="120.9" r="3.2" fill="#d62728"/>
<circle cx="122.9" cy="120.9" r="3.2" fill="#d62728"/>
<circle cx="163.9" cy="120.9" r="3.2" fill="#d62728"/>
<circle cx="204.8" cy="120.9" r="3.2" fill="#d62728"/>
<circle cx="245.8" cy="120.9" r="3.2" fill="#d62728"/>
<circle cx="286.7" cy="120.9" r="3.2" fill="#d62728"/>
<circle cx="327.7" cy="120.9" r="3.2" fill="#d62728"/>
<circle cx="368.6" cy="120.9" r="3.2" fill="#d62728"/>
<circle cx="409.6" cy="120.9" r="3.2" fill="#d62728"/>
<circle cx="450.5" cy="120.9" r="3.2" fill="#d62728"/>
<circle cx="491.5" cy="120.9" r="3.2" fill="#d62728"/>
<circle cx="532.4" cy="120.9" r="3.2" fill="#d62728"/>
<circle cx="573.4" cy="120.9" r="3.2" fill="#d62728"/>
<circle cx="614.3" cy="120.9" r="3.2" fill="#d62728"/>
<circle cx="655.3" cy="120.9" r="3.2" fill="#d62728"/>
<circle cx="696.2" cy="120.9" r="3.2" fill="#d62728"/>
<circle cx="737.2" cy="120.9" r="3.2" fill="#d62728"/>
<circle cx="778.1" cy="120.9" r="3.2" fill="#d62728"/>
<circle cx="819.1" cy="120.9" r="3.2" fill="#d62728"/>
<circle cx="860.0" cy="120.9" r="3.2" fill="#d62728"/>
<line x1="888" y1="88" x2="914" y2="88" stroke="#d62728" stroke-width="3"/>
<text x="922" y="92" font-size="13" font-family="sans-serif">pretrained_tabicl_v2</text>
<polyline points="82.0,527.7 122.9,279.0 163.9,323.3 204.8,332.9 245.8,285.2 286.7,235.9 327.7,253.9 368.6,231.9 409.6,245.0 450.5,211.4 491.5,218.9 532.4,228.1 573.4,196.4 614.3,184.4 655.3,219.5 696.2,207.7 737.2,208.7 778.1,207.5 819.1,214.8 860.0,215.8" fill="none" stroke="#2ca02c" stroke-width="2.4" stroke-linejoin="round" stroke-linecap="round"/>
<circle cx="82.0" cy="527.7" r="3.2" fill="#2ca02c"/>
<circle cx="122.9" cy="279.0" r="3.2" fill="#2ca02c"/>
<circle cx="163.9" cy="323.3" r="3.2" fill="#2ca02c"/>
<circle cx="204.8" cy="332.9" r="3.2" fill="#2ca02c"/>
<circle cx="245.8" cy="285.2" r="3.2" fill="#2ca02c"/>
<circle cx="286.7" cy="235.9" r="3.2" fill="#2ca02c"/>
<circle cx="327.7" cy="253.9" r="3.2" fill="#2ca02c"/>
<circle cx="368.6" cy="231.9" r="3.2" fill="#2ca02c"/>
<circle cx="409.6" cy="245.0" r="3.2" fill="#2ca02c"/>
<circle cx="450.5" cy="211.4" r="3.2" fill="#2ca02c"/>
<circle cx="491.5" cy="218.9" r="3.2" fill="#2ca02c"/>
<circle cx="532.4" cy="228.1" r="3.2" fill="#2ca02c"/>
<circle cx="573.4" cy="196.4" r="3.2" fill="#2ca02c"/>
<circle cx="614.3" cy="184.4" r="3.2" fill="#2ca02c"/>
<circle cx="655.3" cy="219.5" r="3.2" fill="#2ca02c"/>
<circle cx="696.2" cy="207.7" r="3.2" fill="#2ca02c"/>
<circle cx="737.2" cy="208.7" r="3.2" fill="#2ca02c"/>
<circle cx="778.1" cy="207.5" r="3.2" fill="#2ca02c"/>
<circle cx="819.1" cy="214.8" r="3.2" fill="#2ca02c"/>
<circle cx="860.0" cy="215.8" r="3.2" fill="#2ca02c"/>
<line x1="888" y1="112" x2="914" y2="112" stroke="#2ca02c" stroke-width="3"/>
<text x="922" y="116" font-size="13" font-family="sans-serif">generic_baseline</text>
<polyline points="82.0,472.5 122.9,249.8 163.9,249.5 204.8,227.6 245.8,214.6 286.7,196.6 327.7,238.0 368.6,186.0 409.6,198.3 450.5,188.2 491.5,174.6 532.4,178.6 573.4,184.0 614.3,188.3 655.3,180.9 696.2,188.6 737.2,163.7 778.1,166.3 819.1,165.3 860.0,162.7" fill="none" stroke="#9467bd" stroke-width="2.4" stroke-linejoin="round" stroke-linecap="round"/>
<circle cx="82.0" cy="472.5" r="3.2" fill="#9467bd"/>
<circle cx="122.9" cy="249.8" r="3.2" fill="#9467bd"/>
<circle cx="163.9" cy="249.5" r="3.2" fill="#9467bd"/>
<circle cx="204.8" cy="227.6" r="3.2" fill="#9467bd"/>
<circle cx="245.8" cy="214.6" r="3.2" fill="#9467bd"/>
<circle cx="286.7" cy="196.6" r="3.2" fill="#9467bd"/>
<circle cx="327.7" cy="238.0" r="3.2" fill="#9467bd"/>
<circle cx="368.6" cy="186.0" r="3.2" fill="#9467bd"/>
<circle cx="409.6" cy="198.3" r="3.2" fill="#9467bd"/>
<circle cx="450.5" cy="188.2" r="3.2" fill="#9467bd"/>
<circle cx="491.5" cy="174.6" r="3.2" fill="#9467bd"/>
<circle cx="532.4" cy="178.6" r="3.2" fill="#9467bd"/>
<circle cx="573.4" cy="184.0" r="3.2" fill="#9467bd"/>
<circle cx="614.3" cy="188.3" r="3.2" fill="#9467bd"/>
<circle cx="655.3" cy="180.9" r="3.2" fill="#9467bd"/>
<circle cx="696.2" cy="188.6" r="3.2" fill="#9467bd"/>
<circle cx="737.2" cy="163.7" r="3.2" fill="#9467bd"/>
<circle cx="778.1" cy="166.3" r="3.2" fill="#9467bd"/>
<circle cx="819.1" cy="165.3" r="3.2" fill="#9467bd"/>
<circle cx="860.0" cy="162.7" r="3.2" fill="#9467bd"/>
<line x1="888" y1="136" x2="914" y2="136" stroke="#9467bd" stroke-width="3"/>
<text x="922" y="140" font-size="13" font-family="sans-serif">epit_scm_trial_0036</text>
</svg>
