<svg xmlns="http://www.w3.org/2000/svg" width="1120" height="640" viewBox="0 0 1120 640">
<rect width="1120" height="640" fill="white"/>
<text x="82" y="34" font-size="22" font-family="sans-serif" font-weight="700">mean_test_nmae_iqr by checkpoint</text>
<line x1="82" y1="562" x2="860" y2="562" stroke="#222"/>
<line x1="82" y1="64" x2="82" y2="562" stroke="#222"/>
<line x1="82.0" y1="64" x2="82.0" y2="562" stroke="#eeeeee"/>
<line x1="82" y1="562.0" x2="860" y2="562.0" stroke="#eeeeee"/>
<text x="82.0" y="588" text-anchor="middle" font-size="12" font-family="sans-serif">500</text>
<text x="70" y="566.0" text-anchor="end" font-size="12" font-family="sans-serif">0.239</text>
<line x1="237.6" y1="64" x2="237.6" y2="562" stroke="#eeeeee"/>
<line x1="82" y1="462.4" x2="860" y2="462.4" stroke="#eeeeee"/>
<text x="237.6" y="588" text-anchor="middle" font-size="12" font-family="sans-serif">2300</text>
<text x="70" y="466.4" text-anchor="end" font-size="12" font-family="sans-serif">0.293</text>
<line x1="393.2" y1="64" x2="393.2" y2="562" stroke="#eeeeee"/>
<line x1="82" y1="362.8" x2="860" y2="362.8" stroke="#eeeeee"/>
<text x="393.2" y="588" text-anchor="middle" font-size="12" font-family="sans-serif">4100</text>
<text x="70" y="366.8" text-anchor="end" font-size="12" font-family="sans-serif">0.347</text>
<line x1="548.8" y1="64" x2="548.8" y2="562" stroke="#eeeeee"/>
<line x1="82" y1="263.2" x2="860" y2="263.2" stroke="#eeeeee"/>
<text x="548.8" y="588" text-anchor="middle" font-size="12" font-family="sans-serif">5900</text>
<text x="70" y="267.2" text-anchor="end" font-size="12" font-family="sans-serif">0.400</text>
<line x1="704.4" y1="64" x2="704.4" y2="562" stroke="#eeeeee"/>
<line x1="82" y1="163.6" x2="860" y2="163.6" stroke="#eeeeee"/>
<text x="704.4" y="588" text-anchor="middle" font-size="12" font-family="sans-serif">7700</text>
<text x="70" y="167.6" text-anchor="end" font-size="12" font-family="sans-serif">0.454</text>
<line x1="860.0" y1="64" x2="860.0" y2="562" stroke="#eeeeee"/>
<line x1="82" y1="64.0" x2="860" y2="64.0" stroke="#eeeeee"/>
<text x="860.0" y="588" text-anchor="middle" font-size="12" font-family="sans-serif">9500</text>
<text x="70" y="68.0" text-anchor="end" font-size="12" font-family="sans-serif">0.507</text>
<text x="471.0" y="616" text-anchor="middle" font-size="14" font-family="sans-serif">checkpoint step</text>
<text x="22" y="313.0" transform="rotate(-90 22 313.0)" text-anchor="middle" font-size="14" font-family="sans-serif">mean_test_nmae_iqr</text>
<polyline points="82.0,527.7 125.2,527.7 168.4,527.7 211.7,527.7 254.9,527.7 298.1,527.7 341.3,527.7 384.6,527.7 427.8,527.7 471.0,527.7 514.2,527.7 557.4,527.7 600.7,527.7 643.9,527.7 687.1,527.7 730.3,527.7 773.6,527.7 816.8,527.7 851.4,527.7 860.0,527.7" fill="none" stroke="#1f77b4" stroke-width="2.4" stroke-linejoin="round" stroke-linecap="round"/>
<circle cx="82.0" cy="527.7" r="3.2" fill="#1f77b4"/>
<circle cx="125.2" cy="527.7" r="3.2" fill="#1f77b4"/>
<circle cx="168.4" cy="527.7" r="3.2" fill="#1f77b4"/>
<circle cx="211.7" cy="527.7" r="3.2" fill="#1f77b4"/>
<circle cx="254.9" cy="527.7" r="3.2" fill="#1f77b4"/>
<circle cx="298.1" cy="527.7" r="3.2" fill="#1f77b4"/>
<circle cx="341.3" cy="527.7" r="3.2" fill="#1f77b4"/>
<circle cx="384.6" cy="527.7" r="3.2" fill="#1f77b4"/>
<circle cx="427.8" cy="527.7" r="3.2" fill="#1f77b4"/>
<circle cx="471.0" cy="527.7" r="3.2" fill="#1f77b4"/>
<circle cx="514.2" cy="527.7" r="3.2" fill="#1f77b4"/>
<circle cx="557.4" cy="527.7" r="3.2" fill="#1f77b4"/>
<circle cx="600.7" cy="527.7" r="3.2" fill="#1f77b4"/>
<circle cx="643.9" cy="527.7" r="3.2" fill="#1f77b4"/>
<circle cx="687.1" cy="527.7" r="3.2" fill="#1f77b4"/>
<circle cx="730.3" cy="527.7" r="3.2" fill="#1f77b4"/>
<circle cx="773.6" cy="527.7" r="3.2" fill="#1f77b4"/>
<circle cx="816.8" cy="527.7" r="3.2" fill="#1f77b4"/>
<circle cx="851.4" cy="527.7" r="3.2" fill="#1f77b4"/>
<circle cx="860.0" cy="527.7" r="3.2" fill="#1f77b4"/>
<line x1="888" y1="64" x2="914" y2="64" stroke="#1f77b4" stroke-width="3"/>
<text x="922" y="68" font-size="13" font-family="sans-serif">pretrained_tabicl_v2</text>
<polyline points="82.0,203.8 125.2,350.7 168.4,441.0 211.7,464.3 254.9,489.6 298.1,444.4 341.3,505.9 384.6,470.9 427.8,482.5 471.0,494.2 514.2,503.7 557.4,496.7 600.7,502.3 643.9,497.2 687.1,504.0 730.3,497.9 773.6,493.4 816.8,496.9 851.4,496.3 860.0,496.9" fill="none" stroke="#d62728" stroke-width="2.4" stroke-linejoin="round" stroke-linecap="round"/>
<circle cx="82.0" cy="203.8" r="3.2" fill="#d62728"/>
<circle cx="125.2" cy="350.7" r="3.2" fill="#d62728"/>
<circle cx="168.4" cy="441.0" r="3.2" fill="#d62728"/>
<circle cx="211.7" cy="464.3" r="3.2" fill="#d62728"/>
<circle cx="254.9" cy="489.6" r="3.2" fill="#d62728"/>
<circle cx="298.1" cy="444.4" r="3.2" fill="#d62728"/>
<circle cx="341.3" cy="505.9" r="3.2" fill="#d62728"/>
<circle cx="384.6" cy="470.9" r="3.2" fill="#d62728"/>
<circle cx="427.8" cy="482.5" r="3.2" fill="#d62728"/>
<circle cx="471.0" cy="494.2" r="3.2" fill="#d62728"/>
<circle cx="514.2" cy="503.7" r="3.2" fill="#d62728"/>
<circle cx="557.4" cy="496.7" r="3.2" fill="#d62728"/>
<circle cx="600.7" cy="502.3" r="3.2" fill="#d62728"/>
<circle cx="643.9" cy="497.2" r="3.2" fill="#d62728"/>
<circle cx="687.1" cy="504.0" r="3.2" fill="#d62728"/>
<circle cx="730.3" cy="497.9" r="3.2" fill="#d62728"/>
<circle cx="773.6" cy="493.4" r="3.2" fill="#d62728"/>
<circle cx="816.8" cy="496.9" r="3.2" fill="#d62728"/>
<circle cx="851.4" cy="496.3" r="3.2" fill="#d62728"/>
<circle cx="860.0" cy="496.9" r="3.2" fill="#d62728"/>
<line x1="888" y1="88" x2="914" y2="88" stroke="#d62728" stroke-width="3"/>
<text x="922" y="92" font-size="13" font-family="sans-serif">trial18_optuna_best</text>
<polyline points="82.0,98.3 125.2,202.5 168.4,306.6 211.7,281.1 254.9,385.1 298.1,391.9 341.3,367.9 384.6,462.1 427.8,458.4 471.0,380.6 514.2,466.9 557.4,452.3 600.7,452.2 643.9,450.6 687.1,441.1 730.3,431.8 773.6,436.1 816.8,434.4 851.4,432.3 860.0,429.2" fill="none" stroke="#2ca02c" stroke-width="2.4" stroke-linejoin="round" stroke-linecap="round"/>
<circle cx="82.0" cy="98.3" r="3.2" fill="#2ca02c"/>
<circle cx="125.2" cy="202.5" r="3.2" fill="#2ca02c"/>
<circle cx="168.4" cy="306.6" r="3.2" fill="#2ca02c"/>
<circle cx="211.7" cy="281.1" r="3.2" fill="#2ca02c"/>
<circle cx="254.9" cy="385.1" r="3.2" fill="#2ca02c"/>
<circle cx="298.1" cy="391.9" r="3.2" fill="#2ca02c"/>
<circle cx="341.3" cy="367.9" r="3.2" fill="#2ca02c"/>
<circle cx="384.6" cy="462.1" r="3.2" fill="#2ca02c"/>
<circle cx="427.8" cy="458.4" r="3.2" fill="#2ca02c"/>
<circle cx="471.0" cy="380.6" r="3.2" fill="#2ca02c"/>
<circle cx="514.2" cy="466.9" r="3.2" fill="#2ca02c"/>
<circle cx="557.4" cy="452.3" r="3.2" fill="#2ca02c"/>
<circle cx="600.7" cy="452.2" r="3.2" fill="#2ca02c"/>
<circle cx="643.9" cy="450.6" r="3.2" fill="#2ca02c"/>
<circle cx="687.1" cy="441.1" r="3.2" fill="#2ca02c"/>
<circle cx="730.3" cy="431.8" r="3.2" fill="#2ca02c"/>
<circle cx="773.6" cy="436.1" r="3.2" fill="#2ca02c"/>
<circle cx="816.8" cy="434.4" r="3.2" fill="#2ca02c"/>
<circle cx="851.4" cy="432.3" r="3.2" fill="#2ca02c"/>
<circle cx="860.0" cy="429.2" r="3.2" fill="#2ca02c"/>
<line x1="888" y1="112" x2="914" y2="112" stroke="#2ca02c" stroke-width="3"/>
<text x="922" y="116" font-size="13" font-family="sans-serif">baseline</text>
</svg>
