<svg xmlns="http://www.w3.org/2000/svg" width="1120" height="640" viewBox="0 0 1120 640">
<rect width="1120" height="640" fill="white"/>
<text x="82" y="34" font-size="22" font-family="sans-serif" font-weight="700">mean_test_nrmse_iqr by checkpoint</text>
<line x1="82" y1="562" x2="860" y2="562" stroke="#222"/>
<line x1="82" y1="64" x2="82" y2="562" stroke="#222"/>
<line x1="82.0" y1="64" x2="82.0" y2="562" stroke="#eeeeee"/>
<line x1="82" y1="562.0" x2="860" y2="562.0" stroke="#eeeeee"/>
<text x="82.0" y="588" text-anchor="middle" font-size="12" font-family="sans-serif">500</text>
<text x="70" y="566.0" text-anchor="end" font-size="12" font-family="sans-serif">0.381</text>
<line x1="237.6" y1="64" x2="237.6" y2="562" stroke="#eeeeee"/>
<line x1="82" y1="462.4" x2="860" y2="462.4" stroke="#eeeeee"/>
<text x="237.6" y="588" text-anchor="middle" font-size="12" font-family="sans-serif">2300</text>
<text x="70" y="466.4" text-anchor="end" font-size="12" font-family="sans-serif">0.443</text>
<line x1="393.2" y1="64" x2="393.2" y2="562" stroke="#eeeeee"/>
<line x1="82" y1="362.8" x2="860" y2="362.8" stroke="#eeeeee"/>
<text x="393.2" y="588" text-anchor="middle" font-size="12" font-family="sans-serif">4100</text>
<text x="70" y="366.8" text-anchor="end" font-size="12" font-family="sans-serif">0.505</text>
<line x1="548.8" y1="64" x2="548.8" y2="562" stroke="#eeeeee"/>
<line x1="82" y1="263.2" x2="860" y2="263.2" stroke="#eeeeee"/>
<text x="548.8" y="588" text-anchor="middle" font-size="12" font-family="sans-serif">5900</text>
<text x="70" y="267.2" text-anchor="end" font-size="12" font-family="sans-serif">0.567</text>
<line x1="704.4" y1="64" x2="704.4" y2="562" stroke="#eeeeee"/>
<line x1="82" y1="163.6" x2="860" y2="163.6" stroke="#eeeeee"/>
<text x="704.4" y="588" text-anchor="middle" font-size="12" font-family="sans-serif">7700</text>
<text x="70" y="167.6" text-anchor="end" font-size="12" font-family="sans-serif">0.629</text>
<line x1="860.0" y1="64" x2="860.0" y2="562" stroke="#eeeeee"/>
<line x1="82" y1="64.0" x2="860" y2="64.0" stroke="#eeeeee"/>
<text x="860.0" y="588" text-anchor="middle" font-size="12" font-family="sans-serif">9500</text>
<text x="70" y="68.0" text-anchor="end" font-size="12" font-family="sans-serif">0.691</text>
<text x="471.0" y="616" text-anchor="middle" font-size="14" font-family="sans-serif">checkpoint step</text>
<text x="22" y="313.0" transform="rotate(-90 22 313.0)" text-anchor="middle" font-size="14" font-family="sans-serif">mean_test_nrmse_iqr</text>
<polyline points="82.0,488.9 125.2,488.9 168.4,488.9 211.7,488.9 254.9,488.9 298.1,488.9 341.3,488.9 384.6,488.9 427.8,488.9 471.0,488.9 514.2,488.9 557.4,488.9 600.7,488.9 643.9,488.9 687.1,488.9 730.3,488.9 773.6,488.9 816.8,488.9 851.4,488.9 860.0,488.9" fill="none" stroke="#1f77b4" stroke-width="2.4" stroke-linejoin="round" stroke-linecap="round"/>
<circle cx="82.0" cy="488.9" r="3.2" fill="#1f77b4"/>
<circle cx="125.2" cy="488.9" r="3.2" fill="#1f77b4"/>
<circle cx="168.4" cy="488.9" r="3.2" fill="#1f77b4"/>
<circle cx="211.7" cy="488.9" r="3.2" fill="#1f77b4"/>
<circle cx="254.9" cy="488.9" r="3.2" fill="#1f77b4"/>
<circle cx="298.1" cy="488.9" r="3.2" fill="#1f77b4"/>
<circle cx="341.3" cy="488.9" r="3.2" fill="#1f77b4"/>
<circle cx="384.6" cy="488.9" r="3.2" fill="#1f77b4"/>
<circle cx="427.8" cy="488.9" r="3.2" fill="#1f77b4"/>
<circle cx="471.0" cy="488.9" r="3.2" fill="#1f77b4"/>
<circle cx="514.2" cy="488.9" r="3.2" fill="#1f77b4"/>
<circle cx="557.4" cy="488.9" r="3.2" fill="#1f77b4"/>
<circle cx="600.7" cy="488.9" r="3.2" fill="#1f77b4"/>
<circle cx="643.9" cy="488.9" r="3.2" fill="#1f77b4"/>
<circle cx="687.1" cy="488.9" r="3.2" fill="#1f77b4"/>
<circle cx="730.3" cy="488.9" r="3.2" fill="#1f77b4"/>
<circle cx="773.6" cy="488.9" r="3.2" fill="#1f77b4"/>
<circle cx="816.8" cy="488.9" r="3.2" fill="#1f77b4"/>
<circle cx="851.4" cy="488.9" r="3.2" fill="#1f77b4"/>
<circle cx="860.0" cy="488.9" r="3.2" fill="#1f77b4"/>
<line x1="888" y1="64" x2="914" y2="64" stroke="#1f77b4" stroke-width="3"/>
<text x="922" y="68" font-size="13" font-family="sans-serif">pretrained_tabicl_v2</text>
<polyline points="82.0,186.0 125.2,308.1 168.4,418.0 211.7,471.2 254.9,499.1 298.1,441.2 341.3,527.7 384.6,505.0 427.8,504.4 471.0,509.5 514.2,524.5 557.4,512.3 600.7,516.4 643.9,512.3 687.1,523.2 730.3,519.1 773.6,516.8 816.8,519.0 851.4,518.9 860.0,519.0" fill="none" stroke="#d62728" stroke-width="2.4" stroke-linejoin="round" stroke-linecap="round"/>
<circle cx="82.0" cy="186.0" r="3.2" fill="#d62728"/>
<circle cx="125.2" cy="308.1" r="3.2" fill="#d62728"/>
<circle cx="168.4" cy="418.0" r="3.2" fill="#d62728"/>
<circle cx="211.7" cy="471.2" r="3.2" fill="#d62728"/>
<circle cx="254.9" cy="499.1" r="3.2" fill="#d62728"/>
<circle cx="298.1" cy="441.2" r="3.2" fill="#d62728"/>
<circle cx="341.3" cy="527.7" r="3.2" fill="#d62728"/>
<circle cx="384.6" cy="505.0" r="3.2" fill="#d62728"/>
<circle cx="427.8" cy="504.4" r="3.2" fill="#d62728"/>
<circle cx="471.0" cy="509.5" r="3.2" fill="#d62728"/>
<circle cx="514.2" cy="524.5" r="3.2" fill="#d62728"/>
<circle cx="557.4" cy="512.3" r="3.2" fill="#d62728"/>
<circle cx="600.7" cy="516.4" r="3.2" fill="#d62728"/>
<circle cx="643.9" cy="512.3" r="3.2" fill="#d62728"/>
<circle cx="687.1" cy="523.2" r="3.2" fill="#d62728"/>
<circle cx="730.3" cy="519.1" r="3.2" fill="#d62728"/>
<circle cx="773.6" cy="516.8" r="3.2" fill="#d62728"/>
<circle cx="816.8" cy="519.0" r="3.2" fill="#d62728"/>
<circle cx="851.4" cy="518.9" r="3.2" fill="#d62728"/>
<circle cx="860.0" cy="519.0" r="3.2" fill="#d62728"/>
<line x1="888" y1="88" x2="914" y2="88" stroke="#d62728" stroke-width="3"/>
<text x="922" y="92" font-size="13" font-family="sans-serif">trial18_optuna_best</text>
<polyline points="82.0,98.3 125.2,206.3 168.4,283.3 211.7,272.5 254.9,398.6 298.1,407.2 341.3,408.8 384.6,464.6 427.8,467.9 471.0,433.0 514.2,479.8 557.4,471.3 600.7,481.4 643.9,482.2 687.1,466.0 730.3,476.5 773.6,477.5 816.8,478.4 851.4,473.1 860.0,473.5" fill="none" stroke="#2ca02c" stroke-width="2.4" stroke-linejoin="round" stroke-linecap="round"/>
<circle cx="82.0" cy="98.3" r="3.2" fill="#2ca02c"/>
<circle cx="125.2" cy="206.3" r="3.2" fill="#2ca02c"/>
<circle cx="168.4" cy="283.3" r="3.2" fill="#2ca02c"/>
<circle cx="211.7" cy="272.5" r="3.2" fill="#2ca02c"/>
<circle cx="254.9" cy="398.6" r="3.2" fill="#2ca02c"/>
<circle cx="298.1" cy="407.2" r="3.2" fill="#2ca02c"/>
<circle cx="341.3" cy="408.8" r="3.2" fill="#2ca02c"/>
<circle cx="384.6" cy="464.6" r="3.2" fill="#2ca02c"/>
<circle cx="427.8" cy="467.9" r="3.2" fill="#2ca02c"/>
<circle cx="471.0" cy="433.0" r="3.2" fill="#2ca02c"/>
<circle cx="514.2" cy="479.8" r="3.2" fill="#2ca02c"/>
<circle cx="557.4" cy="471.3" r="3.2" fill="#2ca02c"/>
<circle cx="600.7" cy="481.4" r="3.2" fill="#2ca02c"/>
<circle cx="643.9" cy="482.2" r="3.2" fill="#2ca02c"/>
<circle cx="687.1" cy="466.0" r="3.2" fill="#2ca02c"/>
<circle cx="730.3" cy="476.5" r="3.2" fill="#2ca02c"/>
<circle cx="773.6" cy="477.5" r="3.2" fill="#2ca02c"/>
<circle cx="816.8" cy="478.4" r="3.2" fill="#2ca02c"/>
<circle cx="851.4" cy="473.1" r="3.2" fill="#2ca02c"/>
<circle cx="860.0" cy="473.5" r="3.2" fill="#2ca02c"/>
<line x1="888" y1="112" x2="914" y2="112" stroke="#2ca02c" stroke-width="3"/>
<text x="922" y="116" font-size="13" font-family="sans-serif">baseline</text>
</svg>
