<svg xmlns="http://www.w3.org/2000/svg" width="1120" height="640" viewBox="0 0 1120 640">
<rect width="1120" height="640" fill="white"/>
<text x="82" y="34" font-size="22" font-family="sans-serif" font-weight="700">mean_test_spearman by checkpoint</text>
<line x1="82" y1="562" x2="860" y2="562" stroke="#222"/>
<line x1="82" y1="64" x2="82" y2="562" stroke="#222"/>
<line x1="82.0" y1="64" x2="82.0" y2="562" stroke="#eeeeee"/>
<line x1="82" y1="562.0" x2="860" y2="562.0" stroke="#eeeeee"/>
<text x="82.0" y="588" text-anchor="middle" font-size="12" font-family="sans-serif">100</text>
<text x="70" y="566.0" text-anchor="end" font-size="12" font-family="sans-serif">0.718</text>
<line x1="237.6" y1="64" x2="237.6" y2="562" stroke="#eeeeee"/>
<line x1="82" y1="462.4" x2="860" y2="462.4" stroke="#eeeeee"/>
<text x="237.6" y="588" text-anchor="middle" font-size="12" font-family="sans-serif">300</text>
<text x="70" y="466.4" text-anchor="end" font-size="12" font-family="sans-serif">0.744</text>
<line x1="393.2" y1="64" x2="393.2" y2="562" stroke="#eeeeee"/>
<line x1="82" y1="362.8" x2="860" y2="362.8" stroke="#eeeeee"/>
<text x="393.2" y="588" text-anchor="middle" font-size="12" font-family="sans-serif">500</text>
<text x="70" y="366.8" text-anchor="end" font-size="12" font-family="sans-serif">0.769</text>
<line x1="548.8" y1="64" x2="548.8" y2="562" stroke="#eeeeee"/>
<line x1="82" y1="263.2" x2="860" y2="263.2" stroke="#eeeeee"/>
<text x="548.8" y="588" text-anchor="middle" font-size="12" font-family="sans-serif">700</text>
<text x="70" y="267.2" text-anchor="end" font-size="12" font-family="sans-serif">0.795</text>
<line x1="704.4" y1="64" x2="704.4" y2="562" stroke="#eeeeee"/>
<line x1="82" y1="163.6" x2="860" y2="163.6" stroke="#eeeeee"/>
<text x="704.4" y="588" text-anchor="middle" font-size="12" font-family="sans-serif">900</text>
<text x="70" y="167.6" text-anchor="end" font-size="12" font-family="sans-serif">0.820</text>
<line x1="860.0" y1="64" x2="860.0" y2="562" stroke="#eeeeee"/>
<line x1="82" y1="64.0" x2="860" y2="64.0" stroke="#eeeeee"/>
<text x="860.0" y="588" text-anchor="middle" font-size="12" font-family="sans-serif">1100</text>
<text x="70" y="68.0" text-anchor="end" font-size="12" font-family="sans-serif">0.845</text>
<text x="471.0" y="616" text-anchor="middle" font-size="14" font-family="sans-serif">checkpoint step</text>
<text x="22" y="313.0" transform="rotate(-90 22 313.0)" text-anchor="middle" font-size="14" font-family="sans-serif">mean_test_spearman</text>
<polyline points="82.0,103.2 159.8,103.2 237.6,103.2 315.4,103.2 393.2,103.2 471.0,103.2 548.8,103.2 626.6,103.2 704.4,103.2 782.2,103.2 860.0,103.2" fill="none" stroke="#1f77b4" stroke-width="2.4" stroke-linejoin="round" stroke-linecap="round"/>
<circle cx="82.0" cy="103.2" r="3.2" fill="#1f77b4"/>
<circle cx="159.8" cy="103.2" r="3.2" fill="#1f77b4"/>
<circle cx="237.6" cy="103.2" r="3.2" fill="#1f77b4"/>
<circle cx="315.4" cy="103.2" r="3.2" fill="#1f77b4"/>
<circle cx="393.2" cy="103.2" r="3.2" fill="#1f77b4"/>
<circle cx="471.0" cy="103.2" r="3.2" fill="#1f77b4"/>
<circle cx="548.8" cy="103.2" r="3.2" fill="#1f77b4"/>
<circle cx="626.6" cy="103.2" r="3.2" fill="#1f77b4"/>
<circle cx="704.4" cy="103.2" r="3.2" fill="#1f77b4"/>
<circle cx="782.2" cy="103.2" r="3.2" fill="#1f77b4"/>
<circle cx="860.0" cy="103.2" r="3.2" fill="#1f77b4"/>
<line x1="888" y1="64" x2="914" y2="64" stroke="#1f77b4" stroke-width="3"/>
<text x="922" y="68" font-size="13" font-family="sans-serif">pretrained_tabicl_v2</text>
<polyline points="82.0,381.4 159.8,411.0 237.6,361.4 315.4,356.5 393.2,356.8 471.0,353.9 548.8,359.5 626.6,368.9 704.4,361.9 782.2,378.2 860.0,377.8" fill="none" stroke="#d62728" stroke-width="2.4" stroke-linejoin="round" stroke-linecap="round"/>
<circle cx="82.0" cy="381.4" r="3.2" fill="#d62728"/>
<circle cx="159.8" cy="411.0" r="3.2" fill="#d62728"/>
<circle cx="237.6" cy="361.4" r="3.2" fill="#d62728"/>
<circle cx="315.4" cy="356.5" r="3.2" fill="#d62728"/>
<circle cx="393.2" cy="356.8" r="3.2" fill="#d62728"/>
<circle cx="471.0" cy="353.9" r="3.2" fill="#d62728"/>
<circle cx="548.8" cy="359.5" r="3.2" fill="#d62728"/>
<circle cx="626.6" cy="368.9" r="3.2" fill="#d62728"/>
<circle cx="704.4" cy="361.9" r="3.2" fill="#d62728"/>
<circle cx="782.2" cy="378.2" r="3.2" fill="#d62728"/>
<circle cx="860.0" cy="377.8" r="3.2" fill="#d62728"/>
<line x1="888" y1="88" x2="914" y2="88" stroke="#d62728" stroke-width="3"/>
<text x="922" y="92" font-size="13" font-family="sans-serif">regression_test5</text>
<polyline points="82.0,479.9 159.8,490.7 237.6,467.3 315.4,481.9 393.2,473.6 471.0,473.3 548.8,506.2 626.6,516.9 704.4,448.2 782.2,522.8 860.0,491.2" fill="none" stroke="#2ca02c" stroke-width="2.4" stroke-linejoin="round" stroke-linecap="round"/>
<circle cx="82.0" cy="479.9" r="3.2" fill="#2ca02c"/>
<circle cx="159.8" cy="490.7" r="3.2" fill="#2ca02c"/>
<circle cx="237.6" cy="467.3" r="3.2" fill="#2ca02c"/>
<circle cx="315.4" cy="481.9" r="3.2" fill="#2ca02c"/>
<circle cx="393.2" cy="473.6" r="3.2" fill="#2ca02c"/>
<circle cx="471.0" cy="473.3" r="3.2" fill="#2ca02c"/>
<circle cx="548.8" cy="506.2" r="3.2" fill="#2ca02c"/>
<circle cx="626.6" cy="516.9" r="3.2" fill="#2ca02c"/>
<circle cx="704.4" cy="448.2" r="3.2" fill="#2ca02c"/>
<circle cx="782.2" cy="522.8" r="3.2" fill="#2ca02c"/>
<circle cx="860.0" cy="491.2" r="3.2" fill="#2ca02c"/>
<line x1="888" y1="112" x2="914" y2="112" stroke="#2ca02c" stroke-width="3"/>
<text x="922" y="116" font-size="13" font-family="sans-serif">regression_baseline</text>
</svg>
