<svg xmlns="http://www.w3.org/2000/svg" width="1120" height="640" viewBox="0 0 1120 640">
<rect width="1120" height="640" fill="white"/>
<text x="82" y="34" font-size="22" font-family="sans-serif" font-weight="700">mean_test_nmae_iqr by checkpoint</text>
<line x1="82" y1="562" x2="860" y2="562" stroke="#222"/>
<line x1="82" y1="64" x2="82" y2="562" stroke="#222"/>
<line x1="82.0" y1="64" x2="82.0" y2="562" stroke="#eeeeee"/>
<line x1="82" y1="562.0" x2="860" y2="562.0" stroke="#eeeeee"/>
<text x="82.0" y="588" text-anchor="middle" font-size="12" font-family="sans-serif">500</text>
<text x="70" y="566.0" text-anchor="end" font-size="12" font-family="sans-serif">0.378</text>
<line x1="237.6" y1="64" x2="237.6" y2="562" stroke="#eeeeee"/>
<line x1="82" y1="462.4" x2="860" y2="462.4" stroke="#eeeeee"/>
<text x="237.6" y="588" text-anchor="middle" font-size="12" font-family="sans-serif">2400</text>
<text x="70" y="466.4" text-anchor="end" font-size="12" font-family="sans-serif">0.436</text>
<line x1="393.2" y1="64" x2="393.2" y2="562" stroke="#eeeeee"/>
<line x1="82" y1="362.8" x2="860" y2="362.8" stroke="#eeeeee"/>
<text x="393.2" y="588" text-anchor="middle" font-size="12" font-family="sans-serif">4300</text>
<text x="70" y="366.8" text-anchor="end" font-size="12" font-family="sans-serif">0.494</text>
<line x1="548.8" y1="64" x2="548.8" y2="562" stroke="#eeeeee"/>
<line x1="82" y1="263.2" x2="860" y2="263.2" stroke="#eeeeee"/>
<text x="548.8" y="588" text-anchor="middle" font-size="12" font-family="sans-serif">6200</text>
<text x="70" y="267.2" text-anchor="end" font-size="12" font-family="sans-serif">0.552</text>
<line x1="704.4" y1="64" x2="704.4" y2="562" stroke="#eeeeee"/>
<line x1="82" y1="163.6" x2="860" y2="163.6" stroke="#eeeeee"/>
<text x="704.4" y="588" text-anchor="middle" font-size="12" font-family="sans-serif">8100</text>
<text x="70" y="167.6" text-anchor="end" font-size="12" font-family="sans-serif">0.609</text>
<line x1="860.0" y1="64" x2="860.0" y2="562" stroke="#eeeeee"/>
<line x1="82" y1="64.0" x2="860" y2="64.0" stroke="#eeeeee"/>
<text x="860.0" y="588" text-anchor="middle" font-size="12" font-family="sans-serif">10000</text>
<text x="70" y="68.0" text-anchor="end" font-size="12" font-family="sans-serif">0.667</text>
<text x="471.0" y="616" text-anchor="middle" font-size="14" font-family="sans-serif">checkpoint step</text>
<text x="22" y="313.0" transform="rotate(-90 22 313.0)" text-anchor="middle" font-size="14" font-family="sans-serif">mean_test_nmae_iqr</text>
<polyline points="82.0,527.7 122.9,527.7 163.9,527.7 204.8,527.7 245.8,527.7 286.7,527.7 327.7,527.7 368.6,527.7 409.6,527.7 450.5,527.7 491.5,527.7 532.4,527.7 573.4,527.7 614.3,527.7 655.3,527.7 696.2,527.7 737.2,527.7 778.1,527.7 819.1,527.7 860.0,527.7" fill="none" stroke="#1f77b4" stroke-width="2.4" stroke-linejoin="round" stroke-linecap="round"/>
<circle cx="82.0" cy="527.7" r="3.2" fill="#1f77b4"/>
<circle cx="122.9" cy="527.7" r="3.2" fill="#1f77b4"/>
<circle cx="163.9" cy="527.7" r="3.2" fill="#1f77b4"/>
<circle cx="204.8" cy="527.7" r="3.2" fill="#1f77b4"/>
<circle cx="245.8" cy="527.7" r="3.2" fill="#1f77b4"/>
<circle cx="286.7" cy="527.7" r="3.2" fill="#1f77b4"/>
<circle cx="327.7" cy="527.7" r="3.2" fill="#1f77b4"/>
<circle cx="368.6" cy="527.7" r="3.2" fill="#1f77b4"/>
<circle cx="409.6" cy="527.7" r="3.2" fill="#1f77b4"/>
<circle cx="450.5" cy="527.7" r="3.2" fill="#1f77b4"/>
<circle cx="491.5" cy="527.7" r="3.2" fill="#1f77b4"/>
<circle cx="532.4" cy="527.7" r="3.2" fill="#1f77b4"/>
<circle cx="573.4" cy="527.7" r="3.2" fill="#1f77b4"/>
<circle cx="614.3" cy="527.7" r="3.2" fill="#1f77b4"/>
<circle cx="655.3" cy="527.7" r="3.2" fill="#1f77b4"/>
<circle cx="696.2" cy="527.7" r="3.2" fill="#1f77b4"/>
<circle cx="737.2" cy="527.7" r="3.2" fill="#1f77b4"/>
<circle cx="778.1" cy="527.7" r="3.2" fill="#1f77b4"/>
<circle cx="819.1" cy="527.7" r="3.2" fill="#1f77b4"/>
<circle cx="860.0" cy="527.7" r="3.2" fill="#1f77b4"/>
<line x1="888" y1="64" x2="914" y2="64" stroke="#1f77b4" stroke-width="3"/>
<text x="922" y="68" font-size="13" font-family="sans-serif">catboost</text>
<polyline points="82.0,509.9 122.9,509.9 163.9,509.9 204.8,509.9 245.8,509.9 286.7,509.9 327.7,509.9 368.6,509.9 409.6,509.9 450.5,509.9 491.5,509.9 532.4,509.9 573.4,509.9 614.3,509.9 655.3,509.9 696.2,509.9 737.2,509.9 778.1,509.9 819.1,509.9 860.0,509.9" fill="none" stroke="#d62728" stroke-width="2.4" stroke-linejoin="round" stroke-linecap="round"/>
<circle cx="82.0" cy="509.9" r="3.2" fill="#d62728"/>
<circle cx="122.9" cy="509.9" r="3.2" fill="#d62728"/>
<circle cx="163.9" cy="509.9" r="3.2" fill="#d62728"/>
<circle cx="204.8" cy="509.9" r="3.2" fill="#d62728"/>
<circle cx="245.8" cy="509.9" r="3.2" fill="#d62728"/>
<circle cx="286.7" cy="509.9" r="3.2" fill="#d62728"/>
<circle cx="327.7" cy="509.9" r="3.2" fill="#d62728"/>
<circle cx="368.6" cy="509.9" r="3.2" fill="#d62728"/>
<circle cx="409.6" cy="509.9" r="3.2" fill="#d62728"/>
<circle cx="450.5" cy="509.9" r="3.2" fill="#d62728"/>
<circle cx="491.5" cy="509.9" r="3.2" fill="#d62728"/>
<circle cx="532.4" cy="509.9" r="3.2" fill="#d62728"/>
<circle cx="573.4" cy="509.9" r="3.2" fill="#d62728"/>
<circle cx="614.3" cy="509.9" r="3.2" fill="#d62728"/>
<circle cx="655.3" cy="509.9" r="3.2" fill="#d62728"/>
<circle cx="696.2" cy="509.9" r="3.2" fill="#d62728"/>
<circle cx="737.2" cy="509.9" r="3.2" fill="#d62728"/>
<circle cx="778.1" cy="509.9" r="3.2" fill="#d62728"/>
<circle cx="819.1" cy="509.9" r="3.2" fill="#d62728"/>
<circle cx="860.0" cy="509.9" r="3.2" fill="#d62728"/>
<line x1="888" y1="88" x2="914" y2="88" stroke="#d62728" stroke-width="3"/>
<text x="922" y="92" font-size="13" font-family="sans-serif">pretrained_tabicl_v2</text>
<polyline points="82.0,182.1 122.9,363.9 163.9,446.4 204.8,467.3 245.8,448.4 286.7,386.7 327.7,361.2 368.6,311.4 409.6,284.3 450.5,196.8 491.5,279.5 532.4,166.1 573.4,124.2 614.3,125.4 655.3,187.6 696.2,139.1 737.2,127.7 778.1,116.7 819.1,109.6 860.0,108.6" fill="none" stroke="#2ca02c" stroke-width="2.4" stroke-linejoin="round" stroke-linecap="round"/>
<circle cx="82.0" cy="182.1" r="3.2" fill="#2ca02c"/>
<circle cx="122.9" cy="363.9" r="3.2" fill="#2ca02c"/>
<circle cx="163.9" cy="446.4" r="3.2" fill="#2ca02c"/>
<circle cx="204.8" cy="467.3" r="3.2" fill="#2ca02c"/>
<circle cx="245.8" cy="448.4" r="3.2" fill="#2ca02c"/>
<circle cx="286.7" cy="386.7" r="3.2" fill="#2ca02c"/>
<circle cx="327.7" cy="361.2" r="3.2" fill="#2ca02c"/>
<circle cx="368.6" cy="311.4" r="3.2" fill="#2ca02c"/>
<circle cx="409.6" cy="284.3" r="3.2" fill="#2ca02c"/>
<circle cx="450.5" cy="196.8" r="3.2" fill="#2ca02c"/>
<circle cx="491.5" cy="279.5" r="3.2" fill="#2ca02c"/>
<circle cx="532.4" cy="166.1" r="3.2" fill="#2ca02c"/>
<circle cx="573.4" cy="124.2" r="3.2" fill="#2ca02c"/>
<circle cx="614.3" cy="125.4" r="3.2" fill="#2ca02c"/>
<circle cx="655.3" cy="187.6" r="3.2" fill="#2ca02c"/>
<circle cx="696.2" cy="139.1" r="3.2" fill="#2ca02c"/>
<circle cx="737.2" cy="127.7" r="3.2" fill="#2ca02c"/>
<circle cx="778.1" cy="116.7" r="3.2" fill="#2ca02c"/>
<circle cx="819.1" cy="109.6" r="3.2" fill="#2ca02c"/>
<circle cx="860.0" cy="108.6" r="3.2" fill="#2ca02c"/>
<line x1="888" y1="112" x2="914" y2="112" stroke="#2ca02c" stroke-width="3"/>
<text x="922" y="116" font-size="13" font-family="sans-serif">trial_0025</text>
<polyline points="82.0,98.3 122.9,139.9 163.9,207.0 204.8,353.5 245.8,398.3 286.7,270.3 327.7,276.5 368.6,425.0 409.6,385.2 450.5,235.2 491.5,411.5 532.4,407.4 573.4,359.8 614.3,449.3 655.3,408.0 696.2,362.6 737.2,388.0 778.1,405.1 819.1,421.5 860.0,416.9" fill="none" stroke="#9467bd" stroke-width="2.4" stroke-linejoin="round" stroke-linecap="round"/>
<circle cx="82.0" cy="98.3" r="3.2" fill="#9467bd"/>
<circle cx="122.9" cy="139.9" r="3.2" fill="#9467bd"/>
<circle cx="163.9" cy="207.0" r="3.2" fill="#9467bd"/>
<circle cx="204.8" cy="353.5" r="3.2" fill="#9467bd"/>
<circle cx="245.8" cy="398.3" r="3.2" fill="#9467bd"/>
<circle cx="286.7" cy="270.3" r="3.2" fill="#9467bd"/>
<circle cx="327.7" cy="276.5" r="3.2" fill="#9467bd"/>
<circle cx="368.6" cy="425.0" r="3.2" fill="#9467bd"/>
<circle cx="409.6" cy="385.2" r="3.2" fill="#9467bd"/>
<circle cx="450.5" cy="235.2" r="3.2" fill="#9467bd"/>
<circle cx="491.5" cy="411.5" r="3.2" fill="#9467bd"/>
<circle cx="532.4" cy="407.4" r="3.2" fill="#9467bd"/>
<circle cx="573.4" cy="359.8" r="3.2" fill="#9467bd"/>
<circle cx="614.3" cy="449.3" r="3.2" fill="#9467bd"/>
<circle cx="655.3" cy="408.0" r="3.2" fill="#9467bd"/>
<circle cx="696.2" cy="362.6" r="3.2" fill="#9467bd"/>
<circle cx="737.2" cy="388.0" r="3.2" fill="#9467bd"/>
<circle cx="778.1" cy="405.1" r="3.2" fill="#9467bd"/>
<circle cx="819.1" cy="421.5" r="3.2" fill="#9467bd"/>
<circle cx="860.0" cy="416.9" r="3.2" fill="#9467bd"/>
<line x1="888" y1="136" x2="914" y2="136" stroke="#9467bd" stroke-width="3"/>
<text x="922" y="140" font-size="13" font-family="sans-serif">generic_baseline</text>
</svg>
