<svg xmlns="http://www.w3.org/2000/svg" width="1120" height="640" viewBox="0 0 1120 640">
<rect width="1120" height="640" fill="white"/>
<text x="82" y="34" font-size="22" font-family="sans-serif" font-weight="700">mean_test_spearman by checkpoint</text>
<line x1="82" y1="562" x2="860" y2="562" stroke="#222"/>
<line x1="82" y1="64" x2="82" y2="562" stroke="#222"/>
<line x1="82.0" y1="64" x2="82.0" y2="562" stroke="#eeeeee"/>
<line x1="82" y1="562.0" x2="860" y2="562.0" stroke="#eeeeee"/>
<text x="82.0" y="588" text-anchor="middle" font-size="12" font-family="sans-serif">500</text>
<text x="70" y="566.0" text-anchor="end" font-size="12" font-family="sans-serif">0.563</text>
<line x1="237.6" y1="64" x2="237.6" y2="562" stroke="#eeeeee"/>
<line x1="82" y1="462.4" x2="860" y2="462.4" stroke="#eeeeee"/>
<text x="237.6" y="588" text-anchor="middle" font-size="12" font-family="sans-serif">2400</text>
<text x="70" y="466.4" text-anchor="end" font-size="12" font-family="sans-serif">0.616</text>
<line x1="393.2" y1="64" x2="393.2" y2="562" stroke="#eeeeee"/>
<line x1="82" y1="362.8" x2="860" y2="362.8" stroke="#eeeeee"/>
<text x="393.2" y="588" text-anchor="middle" font-size="12" font-family="sans-serif">4300</text>
<text x="70" y="366.8" text-anchor="end" font-size="12" font-family="sans-serif">0.669</text>
<line x1="548.8" y1="64" x2="548.8" y2="562" stroke="#eeeeee"/>
<line x1="82" y1="263.2" x2="860" y2="263.2" stroke="#eeeeee"/>
<text x="548.8" y="588" text-anchor="middle" font-size="12" font-family="sans-serif">6200</text>
<text x="70" y="267.2" text-anchor="end" font-size="12" font-family="sans-serif">0.722</text>
<line x1="704.4" y1="64" x2="704.4" y2="562" stroke="#eeeeee"/>
<line x1="82" y1="163.6" x2="860" y2="163.6" stroke="#eeeeee"/>
<text x="704.4" y="588" text-anchor="middle" font-size="12" font-family="sans-serif">8100</text>
<text x="70" y="167.6" text-anchor="end" font-size="12" font-family="sans-serif">0.775</text>
<line x1="860.0" y1="64" x2="860.0" y2="562" stroke="#eeeeee"/>
<line x1="82" y1="64.0" x2="860" y2="64.0" stroke="#eeeeee"/>
<text x="860.0" y="588" text-anchor="middle" font-size="12" font-family="sans-serif">10000</text>
<text x="70" y="68.0" text-anchor="end" font-size="12" font-family="sans-serif">0.828</text>
<text x="471.0" y="616" text-anchor="middle" font-size="14" font-family="sans-serif">checkpoint step</text>
<text x="22" y="313.0" transform="rotate(-90 22 313.0)" text-anchor="middle" font-size="14" font-family="sans-serif">mean_test_spearman</text>
<polyline points="82.0,98.3 122.9,98.3 163.9,98.3 204.8,98.3 245.8,98.3 286.7,98.3 327.7,98.3 368.6,98.3 409.6,98.3 450.5,98.3 491.5,98.3 532.4,98.3 573.4,98.3 614.3,98.3 655.3,98.3 696.2,98.3 737.2,98.3 778.1,98.3 819.1,98.3 860.0,98.3" fill="none" stroke="#1f77b4" stroke-width="2.4" stroke-linejoin="round" stroke-linecap="round"/>
<circle cx="82.0" cy="98.3" r="3.2" fill="#1f77b4"/>
<circle cx="122.9" cy="98.3" r="3.2" fill="#1f77b4"/>
<circle cx="163.9" cy="98.3" r="3.2" fill="#1f77b4"/>
<circle cx="204.8" cy="98.3" r="3.2" fill="#1f77b4"/>
<circle cx="245.8" cy="98.3" r="3.2" fill="#1f77b4"/>
<circle cx="286.7" cy="98.3" r="3.2" fill="#1f77b4"/>
<circle cx="327.7" cy="98.3" r="3.2" fill="#1f77b4"/>
<circle cx="368.6" cy="98.3" r="3.2" fill="#1f77b4"/>
<circle cx="409.6" cy="98.3" r="3.2" fill="#1f77b4"/>
<circle cx="450.5" cy="98.3" r="3.2" fill="#1f77b4"/>
<circle cx="491.5" cy="98.3" r="3.2" fill="#1f77b4"/>
<circle cx="532.4" cy="98.3" r="3.2" fill="#1f77b4"/>
<circle cx="573.4" cy="98.3" r="3.2" fill="#1f77b4"/>
<circle cx="614.3" cy="98.3" r="3.2" fill="#1f77b4"/>
<circle cx="655.3" cy="98.3" r="3.2" fill="#1f77b4"/>
<circle cx="696.2" cy="98.3" r="3.2" fill="#1f77b4"/>
<circle cx="737.2" cy="98.3" r="3.2" fill="#1f77b4"/>
<circle cx="778.1" cy="98.3" r="3.2" fill="#1f77b4"/>
<circle cx="819.1" cy="98.3" r="3.2" fill="#1f77b4"/>
<circle cx="860.0" cy="98.3" r="3.2" fill="#1f77b4"/>
<line x1="888" y1="64" x2="914" y2="64" stroke="#1f77b4" stroke-width="3"/>
<text x="922" y="68" font-size="13" font-family="sans-serif">catboost</text>
<polyline points="82.0,146.3 122.9,146.3 163.9,146.3 204.8,146.3 245.8,146.3 286.7,146.3 327.7,146.3 368.6,146.3 409.6,146.3 450.5,146.3 491.5,146.3 532.4,146.3 573.4,146.3 614.3,146.3 655.3,146.3 696.2,146.3 737.2,146.3 778.1,146.3 819.1,146.3 860.0,146.3" fill="none" stroke="#d62728" stroke-width="2.4" stroke-linejoin="round" stroke-linecap="round"/>
<circle cx="82.0" cy="146.3" r="3.2" fill="#d62728"/>
<circle cx="122.9" cy="146.3" r="3.2" fill="#d62728"/>
<circle cx="163.9" cy="146.3" r="3.2" fill="#d62728"/>
<circle cx="204.8" cy="146.3" r="3.2" fill="#d62728"/>
<circle cx="245.8" cy="146.3" r="3.2" fill="#d62728"/>
<circle cx="286.7" cy="146.3" r="3.2" fill="#d62728"/>
<circle cx="327.7" cy="146.3" r="3.2" fill="#d62728"/>
<circle cx="368.6" cy="146.3" r="3.2" fill="#d62728"/>
<circle cx="409.6" cy="146.3" r="3.2" fill="#d62728"/>
<circle cx="450.5" cy="146.3" r="3.2" fill="#d62728"/>
<circle cx="491.5" cy="146.3" r="3.2" fill="#d62728"/>
<circle cx="532.4" cy="146.3" r="3.2" fill="#d62728"/>
<circle cx="573.4" cy="146.3" r="3.2" fill="#d62728"/>
<circle cx="614.3" cy="146.3" r="3.2" fill="#d62728"/>
<circle cx="655.3" cy="146.3" r="3.2" fill="#d62728"/>
<circle cx="696.2" cy="146.3" r="3.2" fill="#d62728"/>
<circle cx="737.2" cy="146.3" r="3.2" fill="#d62728"/>
<circle cx="778.1" cy="146.3" r="3.2" fill="#d62728"/>
<circle cx="819.1" cy="146.3" r="3.2" fill="#d62728"/>
<circle cx="860.0" cy="146.3" r="3.2" fill="#d62728"/>
<line x1="888" y1="88" x2="914" y2="88" stroke="#d62728" stroke-width="3"/>
<text x="922" y="92" font-size="13" font-family="sans-serif">pretrained_tabicl_v2</text>
<polyline points="82.0,521.7 122.9,446.5 163.9,303.8 204.8,357.4 245.8,382.1 286.7,434.3 327.7,321.9 368.6,356.1 409.6,369.8 450.5,315.6 491.5,371.7 532.4,351.4 573.4,314.8 614.3,297.8 655.3,295.7 696.2,339.9 737.2,352.1 778.1,378.3 819.1,371.4 860.0,372.3" fill="none" stroke="#2ca02c" stroke-width="2.4" stroke-linejoin="round" stroke-linecap="round"/>
<circle cx="82.0" cy="521.7" r="3.2" fill="#2ca02c"/>
<circle cx="122.9" cy="446.5" r="3.2" fill="#2ca02c"/>
<circle cx="163.9" cy="303.8" r="3.2" fill="#2ca02c"/>
<circle cx="204.8" cy="357.4" r="3.2" fill="#2ca02c"/>
<circle cx="245.8" cy="382.1" r="3.2" fill="#2ca02c"/>
<circle cx="286.7" cy="434.3" r="3.2" fill="#2ca02c"/>
<circle cx="327.7" cy="321.9" r="3.2" fill="#2ca02c"/>
<circle cx="368.6" cy="356.1" r="3.2" fill="#2ca02c"/>
<circle cx="409.6" cy="369.8" r="3.2" fill="#2ca02c"/>
<circle cx="450.5" cy="315.6" r="3.2" fill="#2ca02c"/>
<circle cx="491.5" cy="371.7" r="3.2" fill="#2ca02c"/>
<circle cx="532.4" cy="351.4" r="3.2" fill="#2ca02c"/>
<circle cx="573.4" cy="314.8" r="3.2" fill="#2ca02c"/>
<circle cx="614.3" cy="297.8" r="3.2" fill="#2ca02c"/>
<circle cx="655.3" cy="295.7" r="3.2" fill="#2ca02c"/>
<circle cx="696.2" cy="339.9" r="3.2" fill="#2ca02c"/>
<circle cx="737.2" cy="352.1" r="3.2" fill="#2ca02c"/>
<circle cx="778.1" cy="378.3" r="3.2" fill="#2ca02c"/>
<circle cx="819.1" cy="371.4" r="3.2" fill="#2ca02c"/>
<circle cx="860.0" cy="372.3" r="3.2" fill="#2ca02c"/>
<line x1="888" y1="112" x2="914" y2="112" stroke="#2ca02c" stroke-width="3"/>
<text x="922" y="116" font-size="13" font-family="sans-serif">trial_0025</text>
<polyline points="82.0,527.7 122.9,323.9 163.9,446.0 204.8,471.0 245.8,396.5 286.7,318.7 327.7,307.9 368.6,323.0 409.6,324.8 450.5,257.2 491.5,301.3 532.4,300.8 573.4,285.5 614.3,247.2 655.3,276.7 696.2,264.1 737.2,288.3 778.1,273.4 819.1,257.7 860.0,259.6" fill="none" stroke="#9467bd" stroke-width="2.4" stroke-linejoin="round" stroke-linecap="round"/>
<circle cx="82.0" cy="527.7" r="3.2" fill="#9467bd"/>
<circle cx="122.9" cy="323.9" r="3.2" fill="#9467bd"/>
<circle cx="163.9" cy="446.0" r="3.2" fill="#9467bd"/>
<circle cx="204.8" cy="471.0" r="3.2" fill="#9467bd"/>
<circle cx="245.8" cy="396.5" r="3.2" fill="#9467bd"/>
<circle cx="286.7" cy="318.7" r="3.2" fill="#9467bd"/>
<circle cx="327.7" cy="307.9" r="3.2" fill="#9467bd"/>
<circle cx="368.6" cy="323.0" r="3.2" fill="#9467bd"/>
<circle cx="409.6" cy="324.8" r="3.2" fill="#9467bd"/>
<circle cx="450.5" cy="257.2" r="3.2" fill="#9467bd"/>
<circle cx="491.5" cy="301.3" r="3.2" fill="#9467bd"/>
<circle cx="532.4" cy="300.8" r="3.2" fill="#9467bd"/>
<circle cx="573.4" cy="285.5" r="3.2" fill="#9467bd"/>
<circle cx="614.3" cy="247.2" r="3.2" fill="#9467bd"/>
<circle cx="655.3" cy="276.7" r="3.2" fill="#9467bd"/>
<circle cx="696.2" cy="264.1" r="3.2" fill="#9467bd"/>
<circle cx="737.2" cy="288.3" r="3.2" fill="#9467bd"/>
<circle cx="778.1" cy="273.4" r="3.2" fill="#9467bd"/>
<circle cx="819.1" cy="257.7" r="3.2" fill="#9467bd"/>
<circle cx="860.0" cy="259.6" r="3.2" fill="#9467bd"/>
<line x1="888" y1="136" x2="914" y2="136" stroke="#9467bd" stroke-width="3"/>
<text x="922" y="140" font-size="13" font-family="sans-serif">generic_baseline</text>
</svg>
