<svg xmlns="http://www.w3.org/2000/svg" width="1120" height="640" viewBox="0 0 1120 640">
<rect width="1120" height="640" fill="white"/>
<text x="82" y="34" font-size="22" font-family="sans-serif" font-weight="700">mean_test_f1_macro by checkpoint</text>
<line x1="82" y1="562" x2="860" y2="562" stroke="#222"/>
<line x1="82" y1="64" x2="82" y2="562" stroke="#222"/>
<line x1="82.0" y1="64" x2="82.0" y2="562" stroke="#eeeeee"/>
<line x1="82" y1="562.0" x2="860" y2="562.0" stroke="#eeeeee"/>
<text x="82.0" y="588" text-anchor="middle" font-size="12" font-family="sans-serif">1000</text>
<text x="70" y="566.0" text-anchor="end" font-size="12" font-family="sans-serif">0.611</text>
<line x1="237.6" y1="64" x2="237.6" y2="562" stroke="#eeeeee"/>
<line x1="82" y1="462.4" x2="860" y2="462.4" stroke="#eeeeee"/>
<text x="237.6" y="588" text-anchor="middle" font-size="12" font-family="sans-serif">2800</text>
<text x="70" y="466.4" text-anchor="end" font-size="12" font-family="sans-serif">0.632</text>
<line x1="393.2" y1="64" x2="393.2" y2="562" stroke="#eeeeee"/>
<line x1="82" y1="362.8" x2="860" y2="362.8" stroke="#eeeeee"/>
<text x="393.2" y="588" text-anchor="middle" font-size="12" font-family="sans-serif">4600</text>
<text x="70" y="366.8" text-anchor="end" font-size="12" font-family="sans-serif">0.653</text>
<line x1="548.8" y1="64" x2="548.8" y2="562" stroke="#eeeeee"/>
<line x1="82" y1="263.2" x2="860" y2="263.2" stroke="#eeeeee"/>
<text x="548.8" y="588" text-anchor="middle" font-size="12" font-family="sans-serif">6400</text>
<text x="70" y="267.2" text-anchor="end" font-size="12" font-family="sans-serif">0.675</text>
<line x1="704.4" y1="64" x2="704.4" y2="562" stroke="#eeeeee"/>
<line x1="82" y1="163.6" x2="860" y2="163.6" stroke="#eeeeee"/>
<text x="704.4" y="588" text-anchor="middle" font-size="12" font-family="sans-serif">8200</text>
<text x="70" y="167.6" text-anchor="end" font-size="12" font-family="sans-serif">0.696</text>
<line x1="860.0" y1="64" x2="860.0" y2="562" stroke="#eeeeee"/>
<line x1="82" y1="64.0" x2="860" y2="64.0" stroke="#eeeeee"/>
<text x="860.0" y="588" text-anchor="middle" font-size="12" font-family="sans-serif">10000</text>
<text x="70" y="68.0" text-anchor="end" font-size="12" font-family="sans-serif">0.718</text>
<text x="471.0" y="616" text-anchor="middle" font-size="14" font-family="sans-serif">checkpoint step</text>
<text x="22" y="313.0" transform="rotate(-90 22 313.0)" text-anchor="middle" font-size="14" font-family="sans-serif">mean_test_f1_macro</text>
<polyline points="82.0,110.4 168.4,110.4 254.9,110.4 341.3,110.4 427.8,110.4 514.2,110.4 600.7,110.4 687.1,110.4 773.6,110.4 860.0,110.4" fill="none" stroke="#1f77b4" stroke-width="2.4" stroke-linejoin="round" stroke-linecap="round"/>
<circle cx="82.0" cy="110.4" r="3.2" fill="#1f77b4"/>
<circle cx="168.4" cy="110.4" r="3.2" fill="#1f77b4"/>
<circle cx="254.9" cy="110.4" r="3.2" fill="#1f77b4"/>
<circle cx="341.3" cy="110.4" r="3.2" fill="#1f77b4"/>
<circle cx="427.8" cy="110.4" r="3.2" fill="#1f77b4"/>
<circle cx="514.2" cy="110.4" r="3.2" fill="#1f77b4"/>
<circle cx="600.7" cy="110.4" r="3.2" fill="#1f77b4"/>
<circle cx="687.1" cy="110.4" r="3.2" fill="#1f77b4"/>
<circle cx="773.6" cy="110.4" r="3.2" fill="#1f77b4"/>
<circle cx="860.0" cy="110.4" r="3.2" fill="#1f77b4"/>
<line x1="888" y1="64" x2="914" y2="64" stroke="#1f77b4" stroke-width="3"/>
<text x="922" y="68" font-size="13" font-family="sans-serif">pretrained_tabicl_v2</text>
<polyline points="82.0,434.1 168.4,417.0 254.9,289.9 341.3,268.2 427.8,260.3 514.2,236.8 600.7,235.1 687.1,218.4 773.6,235.9 860.0,228.4" fill="none" stroke="#d62728" stroke-width="2.4" stroke-linejoin="round" stroke-linecap="round"/>
<circle cx="82.0" cy="434.1" r="3.2" fill="#d62728"/>
<circle cx="168.4" cy="417.0" r="3.2" fill="#d62728"/>
<circle cx="254.9" cy="289.9" r="3.2" fill="#d62728"/>
<circle cx="341.3" cy="268.2" r="3.2" fill="#d62728"/>
<circle cx="427.8" cy="260.3" r="3.2" fill="#d62728"/>
<circle cx="514.2" cy="236.8" r="3.2" fill="#d62728"/>
<circle cx="600.7" cy="235.1" r="3.2" fill="#d62728"/>
<circle cx="687.1" cy="218.4" r="3.2" fill="#d62728"/>
<circle cx="773.6" cy="235.9" r="3.2" fill="#d62728"/>
<circle cx="860.0" cy="228.4" r="3.2" fill="#d62728"/>
<line x1="888" y1="88" x2="914" y2="88" stroke="#d62728" stroke-width="3"/>
<text x="922" y="92" font-size="13" font-family="sans-serif">baseline</text>
<polyline points="82.0,448.6 168.4,383.5 254.9,374.6 341.3,288.3 427.8,292.6 514.2,258.3 600.7,242.1 687.1,216.6 773.6,233.8 860.0,233.4" fill="none" stroke="#2ca02c" stroke-width="2.4" stroke-linejoin="round" stroke-linecap="round"/>
<circle cx="82.0" cy="448.6" r="3.2" fill="#2ca02c"/>
<circle cx="168.4" cy="383.5" r="3.2" fill="#2ca02c"/>
<circle cx="254.9" cy="374.6" r="3.2" fill="#2ca02c"/>
<circle cx="341.3" cy="288.3" r="3.2" fill="#2ca02c"/>
<circle cx="427.8" cy="292.6" r="3.2" fill="#2ca02c"/>
<circle cx="514.2" cy="258.3" r="3.2" fill="#2ca02c"/>
<circle cx="600.7" cy="242.1" r="3.2" fill="#2ca02c"/>
<circle cx="687.1" cy="216.6" r="3.2" fill="#2ca02c"/>
<circle cx="773.6" cy="233.8" r="3.2" fill="#2ca02c"/>
<circle cx="860.0" cy="233.4" r="3.2" fill="#2ca02c"/>
<line x1="888" y1="112" x2="914" y2="112" stroke="#2ca02c" stroke-width="3"/>
<text x="922" y="116" font-size="13" font-family="sans-serif">test3</text>
<polyline points="82.0,495.5 168.4,417.0 254.9,375.0 341.3,312.2 427.8,266.0 514.2,246.3 600.7,208.3 687.1,214.8 773.6,170.5 860.0,200.1" fill="none" stroke="#9467bd" stroke-width="2.4" stroke-linejoin="round" stroke-linecap="round"/>
<circle cx="82.0" cy="495.5" r="3.2" fill="#9467bd"/>
<circle cx="168.4" cy="417.0" r="3.2" fill="#9467bd"/>
<circle cx="254.9" cy="375.0" r="3.2" fill="#9467bd"/>
<circle cx="341.3" cy="312.2" r="3.2" fill="#9467bd"/>
<circle cx="427.8" cy="266.0" r="3.2" fill="#9467bd"/>
<circle cx="514.2" cy="246.3" r="3.2" fill="#9467bd"/>
<circle cx="600.7" cy="208.3" r="3.2" fill="#9467bd"/>
<circle cx="687.1" cy="214.8" r="3.2" fill="#9467bd"/>
<circle cx="773.6" cy="170.5" r="3.2" fill="#9467bd"/>
<circle cx="860.0" cy="200.1" r="3.2" fill="#9467bd"/>
<line x1="888" y1="136" x2="914" y2="136" stroke="#9467bd" stroke-width="3"/>
<text x="922" y="140" font-size="13" font-family="sans-serif">test5</text>
<polyline points="82.0,454.1 168.4,330.3 254.9,337.6 341.3,283.3 427.8,267.9 514.2,266.9 600.7,245.3 687.1,202.7 773.6,209.4 860.0,234.4" fill="none" stroke="#ff7f0e" stroke-width="2.4" stroke-linejoin="round" stroke-linecap="round"/>
<circle cx="82.0" cy="454.1" r="3.2" fill="#ff7f0e"/>
<circle cx="168.4" cy="330.3" r="3.2" fill="#ff7f0e"/>
<circle cx="254.9" cy="337.6" r="3.2" fill="#ff7f0e"/>
<circle cx="341.3" cy="283.3" r="3.2" fill="#ff7f0e"/>
<circle cx="427.8" cy="267.9" r="3.2" fill="#ff7f0e"/>
<circle cx="514.2" cy="266.9" r="3.2" fill="#ff7f0e"/>
<circle cx="600.7" cy="245.3" r="3.2" fill="#ff7f0e"/>
<circle cx="687.1" cy="202.7" r="3.2" fill="#ff7f0e"/>
<circle cx="773.6" cy="209.4" r="3.2" fill="#ff7f0e"/>
<circle cx="860.0" cy="234.4" r="3.2" fill="#ff7f0e"/>
<line x1="888" y1="160" x2="914" y2="160" stroke="#ff7f0e" stroke-width="3"/>
<text x="922" y="164" font-size="13" font-family="sans-serif">test1</text>
<polyline points="82.0,515.6 168.4,447.4 254.9,362.5 341.3,251.9 427.8,263.2 514.2,266.1 600.7,242.1 687.1,233.7 773.6,240.3 860.0,217.8" fill="none" stroke="#17becf" stroke-width="2.4" stroke-linejoin="round" stroke-linecap="round"/>
<circle cx="82.0" cy="515.6" r="3.2" fill="#17becf"/>
<circle cx="168.4" cy="447.4" r="3.2" fill="#17becf"/>
<circle cx="254.9" cy="362.5" r="3.2" fill="#17becf"/>
<circle cx="341.3" cy="251.9" r="3.2" fill="#17becf"/>
<circle cx="427.8" cy="263.2" r="3.2" fill="#17becf"/>
<circle cx="514.2" cy="266.1" r="3.2" fill="#17becf"/>
<circle cx="600.7" cy="242.1" r="3.2" fill="#17becf"/>
<circle cx="687.1" cy="233.7" r="3.2" fill="#17becf"/>
<circle cx="773.6" cy="240.3" r="3.2" fill="#17becf"/>
<circle cx="860.0" cy="217.8" r="3.2" fill="#17becf"/>
<line x1="888" y1="184" x2="914" y2="184" stroke="#17becf" stroke-width="3"/>
<text x="922" y="188" font-size="13" font-family="sans-serif">test2</text>
<polyline points="82.0,468.9 168.4,306.3 254.9,246.1 341.3,279.9 427.8,288.5 514.2,252.0 600.7,302.8 687.1,295.6 773.6,214.0 860.0,241.2" fill="none" stroke="#8c564b" stroke-width="2.4" stroke-linejoin="round" stroke-linecap="round"/>
<circle cx="82.0" cy="468.9" r="3.2" fill="#8c564b"/>
<circle cx="168.4" cy="306.3" r="3.2" fill="#8c564b"/>
<circle cx="254.9" cy="246.1" r="3.2" fill="#8c564b"/>
<circle cx="341.3" cy="279.9" r="3.2" fill="#8c564b"/>
<circle cx="427.8" cy="288.5" r="3.2" fill="#8c564b"/>
<circle cx="514.2" cy="252.0" r="3.2" fill="#8c564b"/>
<circle cx="600.7" cy="302.8" r="3.2" fill="#8c564b"/>
<circle cx="687.1" cy="295.6" r="3.2" fill="#8c564b"/>
<circle cx="773.6" cy="214.0" r="3.2" fill="#8c564b"/>
<circle cx="860.0" cy="241.2" r="3.2" fill="#8c564b"/>
<line x1="888" y1="208" x2="914" y2="208" stroke="#8c564b" stroke-width="3"/>
<text x="922" y="212" font-size="13" font-family="sans-serif">test4</text>
</svg>
