<svg xmlns="http://www.w3.org/2000/svg" width="1120" height="640" viewBox="0 0 1120 640">
<rect width="1120" height="640" fill="white"/>
<text x="82" y="34" font-size="22" font-family="sans-serif" font-weight="700">mean_test_auroc by checkpoint</text>
<line x1="82" y1="562" x2="860" y2="562" stroke="#222"/>
<line x1="82" y1="64" x2="82" y2="562" stroke="#222"/>
<line x1="82.0" y1="64" x2="82.0" y2="562" stroke="#eeeeee"/>
<line x1="82" y1="562.0" x2="860" y2="562.0" stroke="#eeeeee"/>
<text x="82.0" y="588" text-anchor="middle" font-size="12" font-family="sans-serif">1000</text>
<text x="70" y="566.0" text-anchor="end" font-size="12" font-family="sans-serif">0.843</text>
<line x1="237.6" y1="64" x2="237.6" y2="562" stroke="#eeeeee"/>
<line x1="82" y1="462.4" x2="860" y2="462.4" stroke="#eeeeee"/>
<text x="237.6" y="588" text-anchor="middle" font-size="12" font-family="sans-serif">2800</text>
<text x="70" y="466.4" text-anchor="end" font-size="12" font-family="sans-serif">0.858</text>
<line x1="393.2" y1="64" x2="393.2" y2="562" stroke="#eeeeee"/>
<line x1="82" y1="362.8" x2="860" y2="362.8" stroke="#eeeeee"/>
<text x="393.2" y="588" text-anchor="middle" font-size="12" font-family="sans-serif">4600</text>
<text x="70" y="366.8" text-anchor="end" font-size="12" font-family="sans-serif">0.872</text>
<line x1="548.8" y1="64" x2="548.8" y2="562" stroke="#eeeeee"/>
<line x1="82" y1="263.2" x2="860" y2="263.2" stroke="#eeeeee"/>
<text x="548.8" y="588" text-anchor="middle" font-size="12" font-family="sans-serif">6400</text>
<text x="70" y="267.2" text-anchor="end" font-size="12" font-family="sans-serif">0.886</text>
<line x1="704.4" y1="64" x2="704.4" y2="562" stroke="#eeeeee"/>
<line x1="82" y1="163.6" x2="860" y2="163.6" stroke="#eeeeee"/>
<text x="704.4" y="588" text-anchor="middle" font-size="12" font-family="sans-serif">8200</text>
<text x="70" y="167.6" text-anchor="end" font-size="12" font-family="sans-serif">0.900</text>
<line x1="860.0" y1="64" x2="860.0" y2="562" stroke="#eeeeee"/>
<line x1="82" y1="64.0" x2="860" y2="64.0" stroke="#eeeeee"/>
<text x="860.0" y="588" text-anchor="middle" font-size="12" font-family="sans-serif">10000</text>
<text x="70" y="68.0" text-anchor="end" font-size="12" font-family="sans-serif">0.914</text>
<text x="471.0" y="616" text-anchor="middle" font-size="14" font-family="sans-serif">checkpoint step</text>
<text x="22" y="313.0" transform="rotate(-90 22 313.0)" text-anchor="middle" font-size="14" font-family="sans-serif">mean_test_auroc</text>
<polyline points="82.0,138.5 168.4,138.5 254.9,138.5 341.3,138.5 427.8,138.5 514.2,138.5 600.7,138.5 687.1,138.5 773.6,138.5 860.0,138.5" fill="none" stroke="#1f77b4" stroke-width="2.4" stroke-linejoin="round" stroke-linecap="round"/>
<circle cx="82.0" cy="138.5" r="3.2" fill="#1f77b4"/>
<circle cx="168.4" cy="138.5" r="3.2" fill="#1f77b4"/>
<circle cx="254.9" cy="138.5" r="3.2" fill="#1f77b4"/>
<circle cx="341.3" cy="138.5" r="3.2" fill="#1f77b4"/>
<circle cx="427.8" cy="138.5" r="3.2" fill="#1f77b4"/>
<circle cx="514.2" cy="138.5" r="3.2" fill="#1f77b4"/>
<circle cx="600.7" cy="138.5" r="3.2" fill="#1f77b4"/>
<circle cx="687.1" cy="138.5" r="3.2" fill="#1f77b4"/>
<circle cx="773.6" cy="138.5" r="3.2" fill="#1f77b4"/>
<circle cx="860.0" cy="138.5" r="3.2" fill="#1f77b4"/>
<line x1="888" y1="64" x2="914" y2="64" stroke="#1f77b4" stroke-width="3"/>
<text x="922" y="68" font-size="13" font-family="sans-serif">pretrained_tabicl_v2</text>
<polyline points="82.0,343.5 168.4,282.9 254.9,238.2 341.3,186.1 427.8,239.5 514.2,175.3 600.7,169.0 687.1,173.4 773.6,192.3 860.0,183.6" fill="none" stroke="#d62728" stroke-width="2.4" stroke-linejoin="round" stroke-linecap="round"/>
<circle cx="82.0" cy="343.5" r="3.2" fill="#d62728"/>
<circle cx="168.4" cy="282.9" r="3.2" fill="#d62728"/>
<circle cx="254.9" cy="238.2" r="3.2" fill="#d62728"/>
<circle cx="341.3" cy="186.1" r="3.2" fill="#d62728"/>
<circle cx="427.8" cy="239.5" r="3.2" fill="#d62728"/>
<circle cx="514.2" cy="175.3" r="3.2" fill="#d62728"/>
<circle cx="600.7" cy="169.0" r="3.2" fill="#d62728"/>
<circle cx="687.1" cy="173.4" r="3.2" fill="#d62728"/>
<circle cx="773.6" cy="192.3" r="3.2" fill="#d62728"/>
<circle cx="860.0" cy="183.6" r="3.2" fill="#d62728"/>
<line x1="888" y1="88" x2="914" y2="88" stroke="#d62728" stroke-width="3"/>
<text x="922" y="92" font-size="13" font-family="sans-serif">test4</text>
<polyline points="82.0,457.3 168.4,332.8 254.9,314.2 341.3,228.5 427.8,255.6 514.2,244.5 600.7,210.6 687.1,216.5 773.6,224.3 860.0,228.9" fill="none" stroke="#2ca02c" stroke-width="2.4" stroke-linejoin="round" stroke-linecap="round"/>
<circle cx="82.0" cy="457.3" r="3.2" fill="#2ca02c"/>
<circle cx="168.4" cy="332.8" r="3.2" fill="#2ca02c"/>
<circle cx="254.9" cy="314.2" r="3.2" fill="#2ca02c"/>
<circle cx="341.3" cy="228.5" r="3.2" fill="#2ca02c"/>
<circle cx="427.8" cy="255.6" r="3.2" fill="#2ca02c"/>
<circle cx="514.2" cy="244.5" r="3.2" fill="#2ca02c"/>
<circle cx="600.7" cy="210.6" r="3.2" fill="#2ca02c"/>
<circle cx="687.1" cy="216.5" r="3.2" fill="#2ca02c"/>
<circle cx="773.6" cy="224.3" r="3.2" fill="#2ca02c"/>
<circle cx="860.0" cy="228.9" r="3.2" fill="#2ca02c"/>
<line x1="888" y1="112" x2="914" y2="112" stroke="#2ca02c" stroke-width="3"/>
<text x="922" y="116" font-size="13" font-family="sans-serif">test5</text>
<polyline points="82.0,465.6 168.4,269.1 254.9,255.7 341.3,238.4 427.8,247.5 514.2,216.8 600.7,215.6 687.1,206.6 773.6,201.0 860.0,214.1" fill="none" stroke="#9467bd" stroke-width="2.4" stroke-linejoin="round" stroke-linecap="round"/>
<circle cx="82.0" cy="465.6" r="3.2" fill="#9467bd"/>
<circle cx="168.4" cy="269.1" r="3.2" fill="#9467bd"/>
<circle cx="254.9" cy="255.7" r="3.2" fill="#9467bd"/>
<circle cx="341.3" cy="238.4" r="3.2" fill="#9467bd"/>
<circle cx="427.8" cy="247.5" r="3.2" fill="#9467bd"/>
<circle cx="514.2" cy="216.8" r="3.2" fill="#9467bd"/>
<circle cx="600.7" cy="215.6" r="3.2" fill="#9467bd"/>
<circle cx="687.1" cy="206.6" r="3.2" fill="#9467bd"/>
<circle cx="773.6" cy="201.0" r="3.2" fill="#9467bd"/>
<circle cx="860.0" cy="214.1" r="3.2" fill="#9467bd"/>
<line x1="888" y1="136" x2="914" y2="136" stroke="#9467bd" stroke-width="3"/>
<text x="922" y="140" font-size="13" font-family="sans-serif">test1</text>
<polyline points="82.0,441.8 168.4,307.6 254.9,242.2 341.3,210.4 427.8,222.7 514.2,187.2 600.7,196.5 687.1,209.4 773.6,195.9 860.0,202.1" fill="none" stroke="#ff7f0e" stroke-width="2.4" stroke-linejoin="round" stroke-linecap="round"/>
<circle cx="82.0" cy="441.8" r="3.2" fill="#ff7f0e"/>
<circle cx="168.4" cy="307.6" r="3.2" fill="#ff7f0e"/>
<circle cx="254.9" cy="242.2" r="3.2" fill="#ff7f0e"/>
<circle cx="341.3" cy="210.4" r="3.2" fill="#ff7f0e"/>
<circle cx="427.8" cy="222.7" r="3.2" fill="#ff7f0e"/>
<circle cx="514.2" cy="187.2" r="3.2" fill="#ff7f0e"/>
<circle cx="600.7" cy="196.5" r="3.2" fill="#ff7f0e"/>
<circle cx="687.1" cy="209.4" r="3.2" fill="#ff7f0e"/>
<circle cx="773.6" cy="195.9" r="3.2" fill="#ff7f0e"/>
<circle cx="860.0" cy="202.1" r="3.2" fill="#ff7f0e"/>
<line x1="888" y1="160" x2="914" y2="160" stroke="#ff7f0e" stroke-width="3"/>
<text x="922" y="164" font-size="13" font-family="sans-serif">test2</text>
<polyline points="82.0,443.3 168.4,344.2 254.9,288.2 341.3,242.8 427.8,244.7 514.2,230.8 600.7,253.5 687.1,217.8 773.6,223.5 860.0,212.5" fill="none" stroke="#17becf" stroke-width="2.4" stroke-linejoin="round" stroke-linecap="round"/>
<circle cx="82.0" cy="443.3" r="3.2" fill="#17becf"/>
<circle cx="168.4" cy="344.2" r="3.2" fill="#17becf"/>
<circle cx="254.9" cy="288.2" r="3.2" fill="#17becf"/>
<circle cx="341.3" cy="242.8" r="3.2" fill="#17becf"/>
<circle cx="427.8" cy="244.7" r="3.2" fill="#17becf"/>
<circle cx="514.2" cy="230.8" r="3.2" fill="#17becf"/>
<circle cx="600.7" cy="253.5" r="3.2" fill="#17becf"/>
<circle cx="687.1" cy="217.8" r="3.2" fill="#17becf"/>
<circle cx="773.6" cy="223.5" r="3.2" fill="#17becf"/>
<circle cx="860.0" cy="212.5" r="3.2" fill="#17becf"/>
<line x1="888" y1="184" x2="914" y2="184" stroke="#17becf" stroke-width="3"/>
<text x="922" y="188" font-size="13" font-family="sans-serif">baseline</text>
<polyline points="82.0,491.3 168.4,286.4 254.9,243.4 341.3,199.8 427.8,189.3 514.2,171.2 600.7,183.7 687.1,134.7 773.6,153.8 860.0,157.5" fill="none" stroke="#8c564b" stroke-width="2.4" stroke-linejoin="round" stroke-linecap="round"/>
<circle cx="82.0" cy="491.3" r="3.2" fill="#8c564b"/>
<circle cx="168.4" cy="286.4" r="3.2" fill="#8c564b"/>
<circle cx="254.9" cy="243.4" r="3.2" fill="#8c564b"/>
<circle cx="341.3" cy="199.8" r="3.2" fill="#8c564b"/>
<circle cx="427.8" cy="189.3" r="3.2" fill="#8c564b"/>
<circle cx="514.2" cy="171.2" r="3.2" fill="#8c564b"/>
<circle cx="600.7" cy="183.7" r="3.2" fill="#8c564b"/>
<circle cx="687.1" cy="134.7" r="3.2" fill="#8c564b"/>
<circle cx="773.6" cy="153.8" r="3.2" fill="#8c564b"/>
<circle cx="860.0" cy="157.5" r="3.2" fill="#8c564b"/>
<line x1="888" y1="208" x2="914" y2="208" stroke="#8c564b" stroke-width="3"/>
<text x="922" y="212" font-size="13" font-family="sans-serif">test3</text>
</svg>
