<svg xmlns="http://www.w3.org/2000/svg" width="1120" height="640" viewBox="0 0 1120 640">
<rect width="1120" height="640" fill="white"/>
<text x="82" y="34" font-size="22" font-family="sans-serif" font-weight="700">mean_test_mae by checkpoint</text>
<line x1="82" y1="562" x2="860" y2="562" stroke="#222"/>
<line x1="82" y1="64" x2="82" y2="562" stroke="#222"/>
<line x1="82.0" y1="64" x2="82.0" y2="562" stroke="#eeeeee"/>
<line x1="82" y1="562.0" x2="860" y2="562.0" stroke="#eeeeee"/>
<text x="82.0" y="588" text-anchor="middle" font-size="12" font-family="sans-serif">500</text>
<text x="70" y="566.0" text-anchor="end" font-size="12" font-family="sans-serif">170.879</text>
<line x1="237.6" y1="64" x2="237.6" y2="562" stroke="#eeeeee"/>
<line x1="82" y1="462.4" x2="860" y2="462.4" stroke="#eeeeee"/>
<text x="237.6" y="588" text-anchor="middle" font-size="12" font-family="sans-serif">2400</text>
<text x="70" y="466.4" text-anchor="end" font-size="12" font-family="sans-serif">188.007</text>
<line x1="393.2" y1="64" x2="393.2" y2="562" stroke="#eeeeee"/>
<line x1="82" y1="362.8" x2="860" y2="362.8" stroke="#eeeeee"/>
<text x="393.2" y="588" text-anchor="middle" font-size="12" font-family="sans-serif">4300</text>
<text x="70" y="366.8" text-anchor="end" font-size="12" font-family="sans-serif">205.134</text>
<line x1="548.8" y1="64" x2="548.8" y2="562" stroke="#eeeeee"/>
<line x1="82" y1="263.2" x2="860" y2="263.2" stroke="#eeeeee"/>
<text x="548.8" y="588" text-anchor="middle" font-size="12" font-family="sans-serif">6200</text>
<text x="70" y="267.2" text-anchor="end" font-size="12" font-family="sans-serif">222.261</text>
<line x1="704.4" y1="64" x2="704.4" y2="562" stroke="#eeeeee"/>
<line x1="82" y1="163.6" x2="860" y2="163.6" stroke="#eeeeee"/>
<text x="704.4" y="588" text-anchor="middle" font-size="12" font-family="sans-serif">8100</text>
<text x="70" y="167.6" text-anchor="end" font-size="12" font-family="sans-serif">239.389</text>
<line x1="860.0" y1="64" x2="860.0" y2="562" stroke="#eeeeee"/>
<line x1="82" y1="64.0" x2="860" y2="64.0" stroke="#eeeeee"/>
<text x="860.0" y="588" text-anchor="middle" font-size="12" font-family="sans-serif">10000</text>
<text x="70" y="68.0" text-anchor="end" font-size="12" font-family="sans-serif">256.516</text>
<text x="471.0" y="616" text-anchor="middle" font-size="14" font-family="sans-serif">checkpoint step</text>
<text x="22" y="313.0" transform="rotate(-90 22 313.0)" text-anchor="middle" font-size="14" font-family="sans-serif">mean_test_mae</text>
<polyline points="82.0,527.7 122.9,527.7 163.9,527.7 204.8,527.7 245.8,527.7 286.7,527.7 327.7,527.7 368.6,527.7 409.6,527.7 450.5,527.7 491.5,527.7 532.4,527.7 573.4,527.7 614.3,527.7 655.3,527.7 696.2,527.7 737.2,527.7 778.1,527.7 819.1,527.7 860.0,527.7" fill="none" stroke="#1f77b4" stroke-width="2.4" stroke-linejoin="round" stroke-linecap="round"/>
<circle cx="82.0" cy="527.7" r="3.2" fill="#1f77b4"/>
<circle cx="122.9" cy="527.7" r="3.2" fill="#1f77b4"/>
<circle cx="163.9" cy="527.7" r="3.2" fill="#1f77b4"/>
<circle cx="204.8" cy="527.7" r="3.2" fill="#1f77b4"/>
<circle cx="245.8" cy="527.7" r="3.2" fill="#1f77b4"/>
<circle cx="286.7" cy="527.7" r="3.2" fill="#1f77b4"/>
<circle cx="327.7" cy="527.7" r="3.2" fill="#1f77b4"/>
<circle cx="368.6" cy="527.7" r="3.2" fill="#1f77b4"/>
<circle cx="409.6" cy="527.7" r="3.2" fill="#1f77b4"/>
<circle cx="450.5" cy="527.7" r="3.2" fill="#1f77b4"/>
<circle cx="491.5" cy="527.7" r="3.2" fill="#1f77b4"/>
<circle cx="532.4" cy="527.7" r="3.2" fill="#1f77b4"/>
<circle cx="573.4" cy="527.7" r="3.2" fill="#1f77b4"/>
<circle cx="614.3" cy="527.7" r="3.2" fill="#1f77b4"/>
<circle cx="655.3" cy="527.7" r="3.2" fill="#1f77b4"/>
<circle cx="696.2" cy="527.7" r="3.2" fill="#1f77b4"/>
<circle cx="737.2" cy="527.7" r="3.2" fill="#1f77b4"/>
<circle cx="778.1" cy="527.7" r="3.2" fill="#1f77b4"/>
<circle cx="819.1" cy="527.7" r="3.2" fill="#1f77b4"/>
<circle cx="860.0" cy="527.7" r="3.2" fill="#1f77b4"/>
<line x1="888" y1="64" x2="914" y2="64" stroke="#1f77b4" stroke-width="3"/>
<text x="922" y="68" font-size="13" font-family="sans-serif">catboost</text>
<polyline points="82.0,513.2 122.9,513.2 163.9,513.2 204.8,513.2 245.8,513.2 286.7,513.2 327.7,513.2 368.6,513.2 409.6,513.2 450.5,513.2 491.5,513.2 532.4,513.2 573.4,513.2 614.3,513.2 655.3,513.2 696.2,513.2 737.2,513.2 778.1,513.2 819.1,513.2 860.0,513.2" fill="none" stroke="#d62728" stroke-width="2.4" stroke-linejoin="round" stroke-linecap="round"/>
<circle cx="82.0" cy="513.2" r="3.2" fill="#d62728"/>
<circle cx="122.9" cy="513.2" r="3.2" fill="#d62728"/>
<circle cx="163.9" cy="513.2" r="3.2" fill="#d62728"/>
<circle cx="204.8" cy="513.2" r="3.2" fill="#d62728"/>
<circle cx="245.8" cy="513.2" r="3.2" fill="#d62728"/>
<circle cx="286.7" cy="513.2" r="3.2" fill="#d62728"/>
<circle cx="327.7" cy="513.2" r="3.2" fill="#d62728"/>
<circle cx="368.6" cy="513.2" r="3.2" fill="#d62728"/>
<circle cx="409.6" cy="513.2" r="3.2" fill="#d62728"/>
<circle cx="450.5" cy="513.2" r="3.2" fill="#d62728"/>
<circle cx="491.5" cy="513.2" r="3.2" fill="#d62728"/>
<circle cx="532.4" cy="513.2" r="3.2" fill="#d62728"/>
<circle cx="573.4" cy="513.2" r="3.2" fill="#d62728"/>
<circle cx="614.3" cy="513.2" r="3.2" fill="#d62728"/>
<circle cx="655.3" cy="513.2" r="3.2" fill="#d62728"/>
<circle cx="696.2" cy="513.2" r="3.2" fill="#d62728"/>
<circle cx="737.2" cy="513.2" r="3.2" fill="#d62728"/>
<circle cx="778.1" cy="513.2" r="3.2" fill="#d62728"/>
<circle cx="819.1" cy="513.2" r="3.2" fill="#d62728"/>
<circle cx="860.0" cy="513.2" r="3.2" fill="#d62728"/>
<line x1="888" y1="88" x2="914" y2="88" stroke="#d62728" stroke-width="3"/>
<text x="922" y="92" font-size="13" font-family="sans-serif">pretrained_tabicl_v2</text>
<polyline points="82.0,267.8 122.9,213.5 163.9,354.2 204.8,375.4 245.8,414.9 286.7,464.0 327.7,419.1 368.6,347.2 409.6,362.3 450.5,388.0 491.5,424.2 532.4,389.7 573.4,382.8 614.3,421.9 655.3,358.5 696.2,424.4 737.2,389.1 778.1,402.7 819.1,399.2 860.0,399.1" fill="none" stroke="#2ca02c" stroke-width="2.4" stroke-linejoin="round" stroke-linecap="round"/>
<circle cx="82.0" cy="267.8" r="3.2" fill="#2ca02c"/>
<circle cx="122.9" cy="213.5" r="3.2" fill="#2ca02c"/>
<circle cx="163.9" cy="354.2" r="3.2" fill="#2ca02c"/>
<circle cx="204.8" cy="375.4" r="3.2" fill="#2ca02c"/>
<circle cx="245.8" cy="414.9" r="3.2" fill="#2ca02c"/>
<circle cx="286.7" cy="464.0" r="3.2" fill="#2ca02c"/>
<circle cx="327.7" cy="419.1" r="3.2" fill="#2ca02c"/>
<circle cx="368.6" cy="347.2" r="3.2" fill="#2ca02c"/>
<circle cx="409.6" cy="362.3" r="3.2" fill="#2ca02c"/>
<circle cx="450.5" cy="388.0" r="3.2" fill="#2ca02c"/>
<circle cx="491.5" cy="424.2" r="3.2" fill="#2ca02c"/>
<circle cx="532.4" cy="389.7" r="3.2" fill="#2ca02c"/>
<circle cx="573.4" cy="382.8" r="3.2" fill="#2ca02c"/>
<circle cx="614.3" cy="421.9" r="3.2" fill="#2ca02c"/>
<circle cx="655.3" cy="358.5" r="3.2" fill="#2ca02c"/>
<circle cx="696.2" cy="424.4" r="3.2" fill="#2ca02c"/>
<circle cx="737.2" cy="389.1" r="3.2" fill="#2ca02c"/>
<circle cx="778.1" cy="402.7" r="3.2" fill="#2ca02c"/>
<circle cx="819.1" cy="399.2" r="3.2" fill="#2ca02c"/>
<circle cx="860.0" cy="399.1" r="3.2" fill="#2ca02c"/>
<line x1="888" y1="112" x2="914" y2="112" stroke="#2ca02c" stroke-width="3"/>
<text x="922" y="116" font-size="13" font-family="sans-serif">trial_0056</text>
<polyline points="82.0,98.3 122.9,317.5 163.9,302.1 204.8,235.3 245.8,363.8 286.7,399.5 327.7,278.6 368.6,393.2 409.6,334.5 450.5,315.0 491.5,281.9 532.4,369.2 573.4,381.9 614.3,367.7 655.3,283.1 696.2,325.4 737.2,340.5 778.1,308.6 819.1,319.1 860.0,315.3" fill="none" stroke="#9467bd" stroke-width="2.4" stroke-linejoin="round" stroke-linecap="round"/>
<circle cx="82.0" cy="98.3" r="3.2" fill="#9467bd"/>
<circle cx="122.9" cy="317.5" r="3.2" fill="#9467bd"/>
<circle cx="163.9" cy="302.1" r="3.2" fill="#9467bd"/>
<circle cx="204.8" cy="235.3" r="3.2" fill="#9467bd"/>
<circle cx="245.8" cy="363.8" r="3.2" fill="#9467bd"/>
<circle cx="286.7" cy="399.5" r="3.2" fill="#9467bd"/>
<circle cx="327.7" cy="278.6" r="3.2" fill="#9467bd"/>
<circle cx="368.6" cy="393.2" r="3.2" fill="#9467bd"/>
<circle cx="409.6" cy="334.5" r="3.2" fill="#9467bd"/>
<circle cx="450.5" cy="315.0" r="3.2" fill="#9467bd"/>
<circle cx="491.5" cy="281.9" r="3.2" fill="#9467bd"/>
<circle cx="532.4" cy="369.2" r="3.2" fill="#9467bd"/>
<circle cx="573.4" cy="381.9" r="3.2" fill="#9467bd"/>
<circle cx="614.3" cy="367.7" r="3.2" fill="#9467bd"/>
<circle cx="655.3" cy="283.1" r="3.2" fill="#9467bd"/>
<circle cx="696.2" cy="325.4" r="3.2" fill="#9467bd"/>
<circle cx="737.2" cy="340.5" r="3.2" fill="#9467bd"/>
<circle cx="778.1" cy="308.6" r="3.2" fill="#9467bd"/>
<circle cx="819.1" cy="319.1" r="3.2" fill="#9467bd"/>
<circle cx="860.0" cy="315.3" r="3.2" fill="#9467bd"/>
<line x1="888" y1="136" x2="914" y2="136" stroke="#9467bd" stroke-width="3"/>
<text x="922" y="140" font-size="13" font-family="sans-serif">generic_baseline</text>
</svg>
