<svg xmlns="http://www.w3.org/2000/svg" width="1120" height="640" viewBox="0 0 1120 640">
<rect width="1120" height="640" fill="white"/>
<text x="82" y="34" font-size="22" font-family="sans-serif" font-weight="700">mean_test_r2 by checkpoint</text>
<line x1="82" y1="562" x2="860" y2="562" stroke="#222"/>
<line x1="82" y1="64" x2="82" y2="562" stroke="#222"/>
<line x1="82.0" y1="64" x2="82.0" y2="562" stroke="#eeeeee"/>
<line x1="82" y1="562.0" x2="860" y2="562.0" stroke="#eeeeee"/>
<text x="82.0" y="588" text-anchor="middle" font-size="12" font-family="sans-serif">500</text>
<text x="70" y="566.0" text-anchor="end" font-size="12" font-family="sans-serif">0.222</text>
<line x1="237.6" y1="64" x2="237.6" y2="562" stroke="#eeeeee"/>
<line x1="82" y1="462.4" x2="860" y2="462.4" stroke="#eeeeee"/>
<text x="237.6" y="588" text-anchor="middle" font-size="12" font-family="sans-serif">2400</text>
<text x="70" y="466.4" text-anchor="end" font-size="12" font-family="sans-serif">0.289</text>
<line x1="393.2" y1="64" x2="393.2" y2="562" stroke="#eeeeee"/>
<line x1="82" y1="362.8" x2="860" y2="362.8" stroke="#eeeeee"/>
<text x="393.2" y="588" text-anchor="middle" font-size="12" font-family="sans-serif">4300</text>
<text x="70" y="366.8" text-anchor="end" font-size="12" font-family="sans-serif">0.356</text>
<line x1="548.8" y1="64" x2="548.8" y2="562" stroke="#eeeeee"/>
<line x1="82" y1="263.2" x2="860" y2="263.2" stroke="#eeeeee"/>
<text x="548.8" y="588" text-anchor="middle" font-size="12" font-family="sans-serif">6200</text>
<text x="70" y="267.2" text-anchor="end" font-size="12" font-family="sans-serif">0.422</text>
<line x1="704.4" y1="64" x2="704.4" y2="562" stroke="#eeeeee"/>
<line x1="82" y1="163.6" x2="860" y2="163.6" stroke="#eeeeee"/>
<text x="704.4" y="588" text-anchor="middle" font-size="12" font-family="sans-serif">8100</text>
<text x="70" y="167.6" text-anchor="end" font-size="12" font-family="sans-serif">0.489</text>
<line x1="860.0" y1="64" x2="860.0" y2="562" stroke="#eeeeee"/>
<line x1="82" y1="64.0" x2="860" y2="64.0" stroke="#eeeeee"/>
<text x="860.0" y="588" text-anchor="middle" font-size="12" font-family="sans-serif">10000</text>
<text x="70" y="68.0" text-anchor="end" font-size="12" font-family="sans-serif">0.556</text>
<text x="471.0" y="616" text-anchor="middle" font-size="14" font-family="sans-serif">checkpoint step</text>
<text x="22" y="313.0" transform="rotate(-90 22 313.0)" text-anchor="middle" font-size="14" font-family="sans-serif">mean_test_r2</text>
<polyline points="82.0,461.5 122.9,400.7 163.9,432.6 204.8,466.9 245.8,525.5 286.7,461.7 327.7,485.4 368.6,497.5 409.6,426.6 450.5,445.2 491.5,404.5 532.4,392.5 573.4,385.6 614.3,366.3 655.3,397.1 696.2,426.9 737.2,420.5 778.1,416.6 819.1,412.7 860.0,415.1" fill="none" stroke="#1f77b4" stroke-width="2.4" stroke-linejoin="round" stroke-linecap="round"/>
<circle cx="82.0" cy="461.5" r="3.2" fill="#1f77b4"/>
<circle cx="122.9" cy="400.7" r="3.2" fill="#1f77b4"/>
<circle cx="163.9" cy="432.6" r="3.2" fill="#1f77b4"/>
<circle cx="204.8" cy="466.9" r="3.2" fill="#1f77b4"/>
<circle cx="245.8" cy="525.5" r="3.2" fill="#1f77b4"/>
<circle cx="286.7" cy="461.7" r="3.2" fill="#1f77b4"/>
<circle cx="327.7" cy="485.4" r="3.2" fill="#1f77b4"/>
<circle cx="368.6" cy="497.5" r="3.2" fill="#1f77b4"/>
<circle cx="409.6" cy="426.6" r="3.2" fill="#1f77b4"/>
<circle cx="450.5" cy="445.2" r="3.2" fill="#1f77b4"/>
<circle cx="491.5" cy="404.5" r="3.2" fill="#1f77b4"/>
<circle cx="532.4" cy="392.5" r="3.2" fill="#1f77b4"/>
<circle cx="573.4" cy="385.6" r="3.2" fill="#1f77b4"/>
<circle cx="614.3" cy="366.3" r="3.2" fill="#1f77b4"/>
<circle cx="655.3" cy="397.1" r="3.2" fill="#1f77b4"/>
<circle cx="696.2" cy="426.9" r="3.2" fill="#1f77b4"/>
<circle cx="737.2" cy="420.5" r="3.2" fill="#1f77b4"/>
<circle cx="778.1" cy="416.6" r="3.2" fill="#1f77b4"/>
<circle cx="819.1" cy="412.7" r="3.2" fill="#1f77b4"/>
<circle cx="860.0" cy="415.1" r="3.2" fill="#1f77b4"/>
<line x1="888" y1="64" x2="914" y2="64" stroke="#1f77b4" stroke-width="3"/>
<text x="922" y="68" font-size="13" font-family="sans-serif">generic_baseline</text>
<polyline points="82.0,527.7 122.9,266.8 163.9,187.5 204.8,184.6 245.8,190.0 286.7,190.5 327.7,236.6 368.6,217.6 409.6,203.1 450.5,189.9 491.5,219.7 532.4,187.3 573.4,208.9 614.3,219.5 655.3,207.0 696.2,224.6 737.2,211.3 778.1,205.7 819.1,207.4 860.0,207.9" fill="none" stroke="#d62728" stroke-width="2.4" stroke-linejoin="round" stroke-linecap="round"/>
<circle cx="82.0" cy="527.7" r="3.2" fill="#d62728"/>
<circle cx="122.9" cy="266.8" r="3.2" fill="#d62728"/>
<circle cx="163.9" cy="187.5" r="3.2" fill="#d62728"/>
<circle cx="204.8" cy="184.6" r="3.2" fill="#d62728"/>
<circle cx="245.8" cy="190.0" r="3.2" fill="#d62728"/>
<circle cx="286.7" cy="190.5" r="3.2" fill="#d62728"/>
<circle cx="327.7" cy="236.6" r="3.2" fill="#d62728"/>
<circle cx="368.6" cy="217.6" r="3.2" fill="#d62728"/>
<circle cx="409.6" cy="203.1" r="3.2" fill="#d62728"/>
<circle cx="450.5" cy="189.9" r="3.2" fill="#d62728"/>
<circle cx="491.5" cy="219.7" r="3.2" fill="#d62728"/>
<circle cx="532.4" cy="187.3" r="3.2" fill="#d62728"/>
<circle cx="573.4" cy="208.9" r="3.2" fill="#d62728"/>
<circle cx="614.3" cy="219.5" r="3.2" fill="#d62728"/>
<circle cx="655.3" cy="207.0" r="3.2" fill="#d62728"/>
<circle cx="696.2" cy="224.6" r="3.2" fill="#d62728"/>
<circle cx="737.2" cy="211.3" r="3.2" fill="#d62728"/>
<circle cx="778.1" cy="205.7" r="3.2" fill="#d62728"/>
<circle cx="819.1" cy="207.4" r="3.2" fill="#d62728"/>
<circle cx="860.0" cy="207.9" r="3.2" fill="#d62728"/>
<line x1="888" y1="88" x2="914" y2="88" stroke="#d62728" stroke-width="3"/>
<text x="922" y="92" font-size="13" font-family="sans-serif">trial_0056</text>
<polyline points="82.0,424.7 122.9,424.7 163.9,424.7 204.8,424.7 245.8,424.7 286.7,424.7 327.7,424.7 368.6,424.7 409.6,424.7 450.5,424.7 491.5,424.7 532.4,424.7 573.4,424.7 614.3,424.7 655.3,424.7 696.2,424.7 737.2,424.7 778.1,424.7 819.1,424.7 860.0,424.7" fill="none" stroke="#2ca02c" stroke-width="2.4" stroke-linejoin="round" stroke-linecap="round"/>
<circle cx="82.0" cy="424.7" r="3.2" fill="#2ca02c"/>
<circle cx="122.9" cy="424.7" r="3.2" fill="#2ca02c"/>
<circle cx="163.9" cy="424.7" r="3.2" fill="#2ca02c"/>
<circle cx="204.8" cy="424.7" r="3.2" fill="#2ca02c"/>
<circle cx="245.8" cy="424.7" r="3.2" fill="#2ca02c"/>
<circle cx="286.7" cy="424.7" r="3.2" fill="#2ca02c"/>
<circle cx="327.7" cy="424.7" r="3.2" fill="#2ca02c"/>
<circle cx="368.6" cy="424.7" r="3.2" fill="#2ca02c"/>
<circle cx="409.6" cy="424.7" r="3.2" fill="#2ca02c"/>
<circle cx="450.5" cy="424.7" r="3.2" fill="#2ca02c"/>
<circle cx="491.5" cy="424.7" r="3.2" fill="#2ca02c"/>
<circle cx="532.4" cy="424.7" r="3.2" fill="#2ca02c"/>
<circle cx="573.4" cy="424.7" r="3.2" fill="#2ca02c"/>
<circle cx="614.3" cy="424.7" r="3.2" fill="#2ca02c"/>
<circle cx="655.3" cy="424.7" r="3.2" fill="#2ca02c"/>
<circle cx="696.2" cy="424.7" r="3.2" fill="#2ca02c"/>
<circle cx="737.2" cy="424.7" r="3.2" fill="#2ca02c"/>
<circle cx="778.1" cy="424.7" r="3.2" fill="#2ca02c"/>
<circle cx="819.1" cy="424.7" r="3.2" fill="#2ca02c"/>
<circle cx="860.0" cy="424.7" r="3.2" fill="#2ca02c"/>
<line x1="888" y1="112" x2="914" y2="112" stroke="#2ca02c" stroke-width="3"/>
<text x="922" y="116" font-size="13" font-family="sans-serif">pretrained_tabicl_v2</text>
<polyline points="82.0,98.3 122.9,98.3 163.9,98.3 204.8,98.3 245.8,98.3 286.7,98.3 327.7,98.3 368.6,98.3 409.6,98.3 450.5,98.3 491.5,98.3 532.4,98.3 573.4,98.3 614.3,98.3 655.3,98.3 696.2,98.3 737.2,98.3 778.1,98.3 819.1,98.3 860.0,98.3" fill="none" stroke="#9467bd" stroke-width="2.4" stroke-linejoin="round" stroke-linecap="round"/>
<circle cx="82.0" cy="98.3" r="3.2" fill="#9467bd"/>
<circle cx="122.9" cy="98.3" r="3.2" fill="#9467bd"/>
<circle cx="163.9" cy="98.3" r="3.2" fill="#9467bd"/>
<circle cx="204.8" cy="98.3" r="3.2" fill="#9467bd"/>
<circle cx="245.8" cy="98.3" r="3.2" fill="#9467bd"/>
<circle cx="286.7" cy="98.3" r="3.2" fill="#9467bd"/>
<circle cx="327.7" cy="98.3" r="3.2" fill="#9467bd"/>
<circle cx="368.6" cy="98.3" r="3.2" fill="#9467bd"/>
<circle cx="409.6" cy="98.3" r="3.2" fill="#9467bd"/>
<circle cx="450.5" cy="98.3" r="3.2" fill="#9467bd"/>
<circle cx="491.5" cy="98.3" r="3.2" fill="#9467bd"/>
<circle cx="532.4" cy="98.3" r="3.2" fill="#9467bd"/>
<circle cx="573.4" cy="98.3" r="3.2" fill="#9467bd"/>
<circle cx="614.3" cy="98.3" r="3.2" fill="#9467bd"/>
<circle cx="655.3" cy="98.3" r="3.2" fill="#9467bd"/>
<circle cx="696.2" cy="98.3" r="3.2" fill="#9467bd"/>
<circle cx="737.2" cy="98.3" r="3.2" fill="#9467bd"/>
<circle cx="778.1" cy="98.3" r="3.2" fill="#9467bd"/>
<circle cx="819.1" cy="98.3" r="3.2" fill="#9467bd"/>
<circle cx="860.0" cy="98.3" r="3.2" fill="#9467bd"/>
<line x1="888" y1="136" x2="914" y2="136" stroke="#9467bd" stroke-width="3"/>
<text x="922" y="140" font-size="13" font-family="sans-serif">catboost</text>
</svg>
