<svg xmlns="http://www.w3.org/2000/svg" width="1120" height="640" viewBox="0 0 1120 640">
<rect width="1120" height="640" fill="white"/>
<text x="82" y="34" font-size="22" font-family="sans-serif" font-weight="700">mean_test_spearman by checkpoint</text>
<line x1="82" y1="562" x2="860" y2="562" stroke="#222"/>
<line x1="82" y1="64" x2="82" y2="562" stroke="#222"/>
<line x1="82.0" y1="64" x2="82.0" y2="562" stroke="#eeeeee"/>
<line x1="82" y1="562.0" x2="860" y2="562.0" stroke="#eeeeee"/>
<text x="82.0" y="588" text-anchor="middle" font-size="12" font-family="sans-serif">500</text>
<text x="70" y="566.0" text-anchor="end" font-size="12" font-family="sans-serif">0.771</text>
<line x1="237.6" y1="64" x2="237.6" y2="562" stroke="#eeeeee"/>
<line x1="82" y1="462.4" x2="860" y2="462.4" stroke="#eeeeee"/>
<text x="237.6" y="588" text-anchor="middle" font-size="12" font-family="sans-serif">2400</text>
<text x="70" y="466.4" text-anchor="end" font-size="12" font-family="sans-serif">0.801</text>
<line x1="393.2" y1="64" x2="393.2" y2="562" stroke="#eeeeee"/>
<line x1="82" y1="362.8" x2="860" y2="362.8" stroke="#eeeeee"/>
<text x="393.2" y="588" text-anchor="middle" font-size="12" font-family="sans-serif">4300</text>
<text x="70" y="366.8" text-anchor="end" font-size="12" font-family="sans-serif">0.831</text>
<line x1="548.8" y1="64" x2="548.8" y2="562" stroke="#eeeeee"/>
<line x1="82" y1="263.2" x2="860" y2="263.2" stroke="#eeeeee"/>
<text x="548.8" y="588" text-anchor="middle" font-size="12" font-family="sans-serif">6200</text>
<text x="70" y="267.2" text-anchor="end" font-size="12" font-family="sans-serif">0.861</text>
<line x1="704.4" y1="64" x2="704.4" y2="562" stroke="#eeeeee"/>
<line x1="82" y1="163.6" x2="860" y2="163.6" stroke="#eeeeee"/>
<text x="704.4" y="588" text-anchor="middle" font-size="12" font-family="sans-serif">8100</text>
<text x="70" y="167.6" text-anchor="end" font-size="12" font-family="sans-serif">0.892</text>
<line x1="860.0" y1="64" x2="860.0" y2="562" stroke="#eeeeee"/>
<line x1="82" y1="64.0" x2="860" y2="64.0" stroke="#eeeeee"/>
<text x="860.0" y="588" text-anchor="middle" font-size="12" font-family="sans-serif">10000</text>
<text x="70" y="68.0" text-anchor="end" font-size="12" font-family="sans-serif">0.922</text>
<text x="471.0" y="616" text-anchor="middle" font-size="14" font-family="sans-serif">checkpoint step</text>
<text x="22" y="313.0" transform="rotate(-90 22 313.0)" text-anchor="middle" font-size="14" font-family="sans-serif">mean_test_spearman</text>
<polyline points="82.0,98.3 122.9,98.3 163.9,98.3 204.8,98.3 245.8,98.3 286.7,98.3 327.7,98.3 368.6,98.3 409.6,98.3 450.5,98.3 491.5,98.3 532.4,98.3 573.4,98.3 614.3,98.3 655.3,98.3 696.2,98.3 737.2,98.3 778.1,98.3 819.1,98.3 860.0,98.3" fill="none" stroke="#1f77b4" stroke-width="2.4" stroke-linejoin="round" stroke-linecap="round"/>
<circle cx="82.0" cy="98.3" r="3.2" fill="#1f77b4"/>
<circle cx="122.9" cy="98.3" r="3.2" fill="#1f77b4"/>
<circle cx="163.9" cy="98.3" r="3.2" fill="#1f77b4"/>
<circle cx="204.8" cy="98.3" r="3.2" fill="#1f77b4"/>
<circle cx="245.8" cy="98.3" r="3.2" fill="#1f77b4"/>
<circle cx="286.7" cy="98.3" r="3.2" fill="#1f77b4"/>
<circle cx="327.7" cy="98.3" r="3.2" fill="#1f77b4"/>
<circle cx="368.6" cy="98.3" r="3.2" fill="#1f77b4"/>
<circle cx="409.6" cy="98.3" r="3.2" fill="#1f77b4"/>
<circle cx="450.5" cy="98.3" r="3.2" fill="#1f77b4"/>
<circle cx="491.5" cy="98.3" r="3.2" fill="#1f77b4"/>
<circle cx="532.4" cy="98.3" r="3.2" fill="#1f77b4"/>
<circle cx="573.4" cy="98.3" r="3.2" fill="#1f77b4"/>
<circle cx="614.3" cy="98.3" r="3.2" fill="#1f77b4"/>
<circle cx="655.3" cy="98.3" r="3.2" fill="#1f77b4"/>
<circle cx="696.2" cy="98.3" r="3.2" fill="#1f77b4"/>
<circle cx="737.2" cy="98.3" r="3.2" fill="#1f77b4"/>
<circle cx="778.1" cy="98.3" r="3.2" fill="#1f77b4"/>
<circle cx="819.1" cy="98.3" r="3.2" fill="#1f77b4"/>
<circle cx="860.0" cy="98.3" r="3.2" fill="#1f77b4"/>
<line x1="888" y1="64" x2="914" y2="64" stroke="#1f77b4" stroke-width="3"/>
<text x="922" y="68" font-size="13" font-family="sans-serif">catboost</text>
<polyline points="82.0,213.3 122.9,213.3 163.9,213.3 204.8,213.3 245.8,213.3 286.7,213.3 327.7,213.3 368.6,213.3 409.6,213.3 450.5,213.3 491.5,213.3 532.4,213.3 573.4,213.3 614.3,213.3 655.3,213.3 696.2,213.3 737.2,213.3 778.1,213.3 819.1,213.3 860.0,213.3" fill="none" stroke="#d62728" stroke-width="2.4" stroke-linejoin="round" stroke-linecap="round"/>
<circle cx="82.0" cy="213.3" r="3.2" fill="#d62728"/>
<circle cx="122.9" cy="213.3" r="3.2" fill="#d62728"/>
<circle cx="163.9" cy="213.3" r="3.2" fill="#d62728"/>
<circle cx="204.8" cy="213.3" r="3.2" fill="#d62728"/>
<circle cx="245.8" cy="213.3" r="3.2" fill="#d62728"/>
<circle cx="286.7" cy="213.3" r="3.2" fill="#d62728"/>
<circle cx="327.7" cy="213.3" r="3.2" fill="#d62728"/>
<circle cx="368.6" cy="213.3" r="3.2" fill="#d62728"/>
<circle cx="409.6" cy="213.3" r="3.2" fill="#d62728"/>
<circle cx="450.5" cy="213.3" r="3.2" fill="#d62728"/>
<circle cx="491.5" cy="213.3" r="3.2" fill="#d62728"/>
<circle cx="532.4" cy="213.3" r="3.2" fill="#d62728"/>
<circle cx="573.4" cy="213.3" r="3.2" fill="#d62728"/>
<circle cx="614.3" cy="213.3" r="3.2" fill="#d62728"/>
<circle cx="655.3" cy="213.3" r="3.2" fill="#d62728"/>
<circle cx="696.2" cy="213.3" r="3.2" fill="#d62728"/>
<circle cx="737.2" cy="213.3" r="3.2" fill="#d62728"/>
<circle cx="778.1" cy="213.3" r="3.2" fill="#d62728"/>
<circle cx="819.1" cy="213.3" r="3.2" fill="#d62728"/>
<circle cx="860.0" cy="213.3" r="3.2" fill="#d62728"/>
<line x1="888" y1="88" x2="914" y2="88" stroke="#d62728" stroke-width="3"/>
<text x="922" y="92" font-size="13" font-family="sans-serif">pretrained_tabicl_v2</text>
<polyline points="82.0,450.2 122.9,261.6 163.9,228.9 204.8,275.1 245.8,256.5 286.7,286.5 327.7,349.3 368.6,364.7 409.6,359.3 450.5,400.5 491.5,406.6 532.4,396.7 573.4,355.8 614.3,382.7 655.3,422.5 696.2,408.6 737.2,402.9 778.1,402.4 819.1,394.1 860.0,391.6" fill="none" stroke="#2ca02c" stroke-width="2.4" stroke-linejoin="round" stroke-linecap="round"/>
<circle cx="82.0" cy="450.2" r="3.2" fill="#2ca02c"/>
<circle cx="122.9" cy="261.6" r="3.2" fill="#2ca02c"/>
<circle cx="163.9" cy="228.9" r="3.2" fill="#2ca02c"/>
<circle cx="204.8" cy="275.1" r="3.2" fill="#2ca02c"/>
<circle cx="245.8" cy="256.5" r="3.2" fill="#2ca02c"/>
<circle cx="286.7" cy="286.5" r="3.2" fill="#2ca02c"/>
<circle cx="327.7" cy="349.3" r="3.2" fill="#2ca02c"/>
<circle cx="368.6" cy="364.7" r="3.2" fill="#2ca02c"/>
<circle cx="409.6" cy="359.3" r="3.2" fill="#2ca02c"/>
<circle cx="450.5" cy="400.5" r="3.2" fill="#2ca02c"/>
<circle cx="491.5" cy="406.6" r="3.2" fill="#2ca02c"/>
<circle cx="532.4" cy="396.7" r="3.2" fill="#2ca02c"/>
<circle cx="573.4" cy="355.8" r="3.2" fill="#2ca02c"/>
<circle cx="614.3" cy="382.7" r="3.2" fill="#2ca02c"/>
<circle cx="655.3" cy="422.5" r="3.2" fill="#2ca02c"/>
<circle cx="696.2" cy="408.6" r="3.2" fill="#2ca02c"/>
<circle cx="737.2" cy="402.9" r="3.2" fill="#2ca02c"/>
<circle cx="778.1" cy="402.4" r="3.2" fill="#2ca02c"/>
<circle cx="819.1" cy="394.1" r="3.2" fill="#2ca02c"/>
<circle cx="860.0" cy="391.6" r="3.2" fill="#2ca02c"/>
<line x1="888" y1="112" x2="914" y2="112" stroke="#2ca02c" stroke-width="3"/>
<text x="922" y="116" font-size="13" font-family="sans-serif">epit_scm_trial_0036</text>
<polyline points="82.0,527.7 122.9,349.6 163.9,136.1 204.8,135.1 245.8,163.4 286.7,268.0 327.7,233.8 368.6,213.7 409.6,185.1 450.5,189.2 491.5,195.1 532.4,179.5 573.4,187.7 614.3,144.2 655.3,159.3 696.2,142.7 737.2,133.7 778.1,144.7 819.1,130.0 860.0,135.5" fill="none" stroke="#9467bd" stroke-width="2.4" stroke-linejoin="round" stroke-linecap="round"/>
<circle cx="82.0" cy="527.7" r="3.2" fill="#9467bd"/>
<circle cx="122.9" cy="349.6" r="3.2" fill="#9467bd"/>
<circle cx="163.9" cy="136.1" r="3.2" fill="#9467bd"/>
<circle cx="204.8" cy="135.1" r="3.2" fill="#9467bd"/>
<circle cx="245.8" cy="163.4" r="3.2" fill="#9467bd"/>
<circle cx="286.7" cy="268.0" r="3.2" fill="#9467bd"/>
<circle cx="327.7" cy="233.8" r="3.2" fill="#9467bd"/>
<circle cx="368.6" cy="213.7" r="3.2" fill="#9467bd"/>
<circle cx="409.6" cy="185.1" r="3.2" fill="#9467bd"/>
<circle cx="450.5" cy="189.2" r="3.2" fill="#9467bd"/>
<circle cx="491.5" cy="195.1" r="3.2" fill="#9467bd"/>
<circle cx="532.4" cy="179.5" r="3.2" fill="#9467bd"/>
<circle cx="573.4" cy="187.7" r="3.2" fill="#9467bd"/>
<circle cx="614.3" cy="144.2" r="3.2" fill="#9467bd"/>
<circle cx="655.3" cy="159.3" r="3.2" fill="#9467bd"/>
<circle cx="696.2" cy="142.7" r="3.2" fill="#9467bd"/>
<circle cx="737.2" cy="133.7" r="3.2" fill="#9467bd"/>
<circle cx="778.1" cy="144.7" r="3.2" fill="#9467bd"/>
<circle cx="819.1" cy="130.0" r="3.2" fill="#9467bd"/>
<circle cx="860.0" cy="135.5" r="3.2" fill="#9467bd"/>
<line x1="888" y1="136" x2="914" y2="136" stroke="#9467bd" stroke-width="3"/>
<text x="922" y="140" font-size="13" font-family="sans-serif">generic_baseline</text>
</svg>
